<svg width="24" height="28" viewBox="0 0 24 28" fill="none" xmlns="http://www.w3.org/2000/svg">
<path d="M2.77029 28C1.98057 28 1.32171 27.7604 0.793714 27.2813C0.265714 26.8022 0.00114286 26.2044 0 25.4878V2.51222C0 1.79667 0.264571 1.19933 0.793714 0.720222C1.32286 0.241111 1.98171 0.00103704 2.77029 0H21.2314C22.02 0 22.6789 0.240074 23.208 0.720222C23.7371 1.20037 24.0011 1.79822 24 2.51378V25.4878C24 26.2033 23.736 26.8012 23.208 27.2813C22.68 27.7615 22.0206 28.001 21.2297 28H2.77029ZM2.77029 26.4444H21.2314C21.4943 26.4444 21.736 26.3449 21.9566 26.1458C22.1771 25.9467 22.2869 25.7268 22.2857 25.4862V2.51378C22.2857 2.27422 22.176 2.05437 21.9566 1.85422C21.7371 1.65407 21.4949 1.55452 21.2297 1.55556H18.8571V11.0693L15.4286 9.21355L12 11.0693V1.55556H2.77029C2.50629 1.55556 2.264 1.65511 2.04343 1.85422C1.82286 2.05333 1.71314 2.27267 1.71429 2.51222V25.4878C1.71429 25.7263 1.824 25.9456 2.04343 26.1458C2.26286 26.3459 2.50457 26.4455 2.76857 26.4444" fill="white"/>
</svg>
