<svg width="26" height="25" viewBox="0 0 26 25" fill="none" xmlns="http://www.w3.org/2000/svg">
<path d="M1 12.5C1 14.0443 1.31039 15.5736 1.91345 17.0003C2.5165 18.4271 3.40042 19.7235 4.51472 20.8156C5.62902 21.9076 6.95189 22.7738 8.4078 23.3648C9.86371 23.9558 11.4241 24.26 13 24.26C14.5759 24.26 16.1363 23.9558 17.5922 23.3648C19.0481 22.7738 20.371 21.9076 21.4853 20.8156C22.5996 19.7235 23.4835 18.4271 24.0866 17.0003C24.6896 15.5736 25 14.0443 25 12.5C25 10.9556 24.6896 9.42642 24.0866 7.99963C23.4835 6.57284 22.5996 5.27643 21.4853 4.18441C20.371 3.0924 19.0481 2.22616 17.5922 1.63517C16.1363 1.04417 14.5759 0.73999 13 0.73999C11.4241 0.73999 9.86371 1.04417 8.4078 1.63517C6.95189 2.22616 5.62902 3.0924 4.51472 4.18441C3.40042 5.27643 2.5165 6.57284 1.91345 7.99963C1.31039 9.42642 1 10.9556 1 12.5Z" stroke="black" stroke-opacity="0.7" stroke-linecap="round" stroke-linejoin="round"/>
<path d="M1 12.5H9M9 9.88662C9 9.54007 9.14048 9.20772 9.39052 8.96267C9.64057 8.71762 9.97971 8.57996 10.3333 8.57996H15.6667C16.0203 8.57996 16.3594 8.71762 16.6095 8.96267C16.8595 9.20772 17 9.54007 17 9.88662V15.1133C17 15.4598 16.8595 15.7922 16.6095 16.0372C16.3594 16.2823 16.0203 16.42 15.6667 16.42H10.3333C9.97971 16.42 9.64057 16.2823 9.39052 16.0372C9.14048 15.7922 9 15.4598 9 15.1133V9.88662Z" stroke="black" stroke-opacity="0.7" stroke-linecap="round" stroke-linejoin="round"/>
</svg>
