<svg width="22" height="22" viewBox="0 0 22 22" fill="none" xmlns="http://www.w3.org/2000/svg">
<path d="M20.5287 22C18.2114 22 15.8354 21.4197 13.4008 20.2592C10.9661 19.0987 8.70421 17.4694 6.61512 15.3711C4.52604 13.2729 2.90125 11.011 1.74075 8.5855C0.58025 6.16 0 3.78858 0 1.47125C0 1.05142 0.1375 0.701709 0.4125 0.422125C0.6875 0.142542 1.03125 0.00183333 1.44375 0H4.84412C5.21812 0 5.54446 0.117792 5.82312 0.353375C6.10179 0.588958 6.29017 0.891 6.38825 1.2595L7.07025 4.5375C7.13442 4.9225 7.12296 5.25846 7.03587 5.54537C6.94879 5.83229 6.79617 6.06742 6.578 6.25075L3.56125 9.064C4.12592 10.0879 4.74971 11.0394 5.43263 11.9185C6.11554 12.7976 6.84429 13.6304 7.61888 14.4169C8.41638 15.2144 9.27529 15.9569 10.1956 16.6444C11.116 17.331 12.1261 17.979 13.2261 18.5886L16.1672 15.5952C16.3909 15.3542 16.6425 15.1951 16.9221 15.1181C17.2008 15.042 17.5097 15.0269 17.8489 15.0727L20.7405 15.664C21.1145 15.7557 21.4179 15.944 21.6507 16.2291C21.8836 16.5142 22 16.8405 22 17.2081V20.5563C22 20.9688 21.8598 21.3125 21.5793 21.5875C21.2987 21.8625 20.9477 22 20.5287 22ZM2.915 7.77425L5.555 5.34737C5.64208 5.27679 5.69892 5.17963 5.7255 5.05588C5.753 4.93213 5.74842 4.81754 5.71175 4.71213L5.10262 1.79713C5.06687 1.65688 5.005 1.55146 4.917 1.48088C4.829 1.41029 4.71488 1.375 4.57463 1.375H1.75313C1.64771 1.375 1.55971 1.41029 1.48913 1.48088C1.41854 1.55146 1.38325 1.63946 1.38325 1.74488C1.40983 2.68446 1.55696 3.66529 1.82463 4.68738C2.09229 5.70946 2.45483 6.73842 2.915 7.77425ZM14.5351 19.2335C15.4646 19.6937 16.4546 20.0342 17.5051 20.2551C18.5575 20.4751 19.4741 20.5929 20.2551 20.6085C20.3605 20.6085 20.4485 20.5732 20.5191 20.5026C20.5897 20.432 20.625 20.3445 20.625 20.24V17.479C20.625 17.3388 20.5897 17.2242 20.5191 17.1353C20.4485 17.0473 20.3431 16.9858 20.2029 16.951L17.6591 16.4299C17.5528 16.3941 17.4597 16.3895 17.38 16.4161C17.3012 16.4436 17.2178 16.5009 17.1298 16.588L14.5351 19.2335Z" fill="white"/>
</svg>
