<svg width="24" height="24" viewBox="0 0 24 24" fill="none" xmlns="http://www.w3.org/2000/svg">
<path d="M18.494 0.700903C18.3728 0.631961 18.233 0.590862 18.0828 0.590915C18.0827 0.590915 18.0826 0.590915 18.0825 0.590915H5.91746L18.494 0.700903ZM18.494 0.700903C18.4742 0.680092 18.454 0.660901 18.4334 0.643364C18.3123 0.539835 18.1898 0.499615 18.0814 0.500003L18.0797 0.500009L5.91724 0.500006H5.91545C5.80707 0.499615 5.68463 0.539835 5.56346 0.643364C5.54166 0.661995 5.52016 0.682493 5.49914 0.704816C5.62195 0.633519 5.76416 0.590861 5.91724 0.590915L18.494 0.700903ZM21.8409 10.3182H21.99H22.2H23.4951C23.4979 10.3305 23.5 10.3457 23.5 10.3636C23.5 10.3815 23.4979 10.3967 23.4951 10.4091H22.3448H22.0172H21.8448H21.5172H2.48276H2.15517H1.98276H1.65517H0.504876C0.502066 10.3967 0.5 10.3815 0.5 10.3636C0.5 10.3457 0.502066 10.3305 0.504876 10.3182H1.8H2.01002H2.1592H2.70621H21.2938H21.8409ZM21.5172 19.0455H21.8448V19.1364H21.5172H18.2069H17.8793H17.7069H17.3793H6.62069H6.2931H6.12069H5.7931H2.48276H2.15517V19.0455H2.48276H21.5172ZM21.1034 23.4091C21.2561 23.4091 21.395 23.3674 21.5148 23.2989C21.3764 23.4447 21.2278 23.5 21.1034 23.5H18.6207C18.4963 23.5 18.3478 23.4447 18.2093 23.2989C18.3292 23.3674 18.4681 23.4091 18.6207 23.4091H21.1034ZM5.37931 23.4091C5.53194 23.4091 5.67084 23.3674 5.79068 23.2989C5.65223 23.4447 5.50366 23.5 5.37931 23.5H2.89655C2.7722 23.5 2.62363 23.4447 2.48519 23.2989C2.60502 23.3674 2.74392 23.4091 2.89655 23.4091H5.37931ZM18.0797 6.04653e-06H5.91724H18.0797ZM5.46552 14.7273C5.46552 14.7094 5.46758 14.6942 5.47039 14.6818H6.9434C6.94621 14.6942 6.94828 14.7094 6.94828 14.7273C6.94828 14.7452 6.94621 14.7604 6.9434 14.7727H5.47039C5.46758 14.7604 5.46552 14.7452 5.46552 14.7273ZM6.92871 14.6437L6.92873 14.6438L6.92871 14.6437ZM17.0517 14.7273C17.0517 14.7094 17.0538 14.6942 17.0566 14.6818H18.5296C18.5324 14.6942 18.5345 14.7094 18.5345 14.7273C18.5345 14.7452 18.5324 14.7604 18.5296 14.7727H17.0566C17.0538 14.7604 17.0517 14.7452 17.0517 14.7273ZM17.0713 14.8108L17.0713 14.8108L17.0713 14.8108Z" stroke="black" stroke-opacity="0.7"/>
</svg>
