<svg width="24" height="24" viewBox="0 0 24 24" fill="none" xmlns="http://www.w3.org/2000/svg">
<path d="M11.4545 6.72664C11.7449 6.72664 12.0233 6.60853 12.2286 6.39828C12.4339 6.18803 12.5492 5.90287 12.5492 5.60553C12.5492 5.3082 12.4339 5.02304 12.2286 4.81279C12.0233 4.60254 11.7449 4.48442 11.4545 4.48442C11.1642 4.48442 10.8858 4.60254 10.6805 4.81279C10.4752 5.02304 10.3599 5.3082 10.3599 5.60553C10.3599 5.90287 10.4752 6.18803 10.6805 6.39828C10.8858 6.60853 11.1642 6.72664 11.4545 6.72664ZM15.8332 8.22145C16.1235 8.22145 16.4019 8.10334 16.6072 7.89309C16.8125 7.68284 16.9278 7.39768 16.9278 7.10035C16.9278 6.80301 16.8125 6.51785 16.6072 6.3076C16.4019 6.09735 16.1235 5.97924 15.8332 5.97924C15.5428 5.97924 15.2644 6.09735 15.0591 6.3076C14.8538 6.51785 14.7385 6.80301 14.7385 7.10035C14.7385 7.39768 14.8538 7.68284 15.0591 7.89309C15.2644 8.10334 15.5428 8.22145 15.8332 8.22145ZM19.482 10.4637C19.482 10.761 19.3667 11.0462 19.1614 11.2564C18.9561 11.4667 18.6777 11.5848 18.3874 11.5848C18.097 11.5848 17.8186 11.4667 17.6133 11.2564C17.408 11.0462 17.2927 10.761 17.2927 10.4637C17.2927 10.1663 17.408 9.88118 17.6133 9.67093C17.8186 9.46068 18.097 9.34256 18.3874 9.34256C18.6777 9.34256 18.9561 9.46068 19.1614 9.67093C19.3667 9.88118 19.482 10.1663 19.482 10.4637ZM18.3874 16.0692C18.6777 16.0692 18.9561 15.9511 19.1614 15.7409C19.3667 15.5306 19.482 15.2454 19.482 14.9481C19.482 14.6508 19.3667 14.3656 19.1614 14.1554C18.9561 13.9451 18.6777 13.827 18.3874 13.827C18.097 13.827 17.8186 13.9451 17.6133 14.1554C17.408 14.3656 17.2927 14.6508 17.2927 14.9481C17.2927 15.2454 17.408 15.5306 17.6133 15.7409C17.8186 15.9511 18.097 16.0692 18.3874 16.0692ZM16.5629 17.9377C16.5629 18.085 16.5346 18.2307 16.4796 18.3668C16.4246 18.5028 16.344 18.6264 16.2423 18.7305C16.1407 18.8346 16.02 18.9172 15.8872 18.9735C15.7544 19.0298 15.612 19.0588 15.4683 19.0588C15.3245 19.0588 15.1822 19.0298 15.0494 18.9735C14.9166 18.9172 14.7959 18.8346 14.6942 18.7305C14.5926 18.6264 14.512 18.5028 14.457 18.3668C14.4019 18.2307 14.3736 18.085 14.3736 17.9377C14.3736 17.6404 14.489 17.3552 14.6942 17.145C14.8995 16.9347 15.178 16.8166 15.4683 16.8166C15.7586 16.8166 16.037 16.9347 16.2423 17.145C16.4476 17.3552 16.5629 17.6404 16.5629 17.9377ZM17.2154 1.48284C13.1958 -0.63232 9.10905 -0.43052 5.64555 1.74294C3.87951 2.85209 1.97188 5.18549 0.896199 7.56224C0.356168 8.75809 -0.00433918 10.0227 3.94478e-05 11.2006C0.00587762 12.398 0.391197 13.5415 1.36909 14.3577C2.25941 15.1021 3.03589 15.4758 3.7861 15.5132C4.54214 15.552 5.1318 15.2381 5.59301 14.9601L5.88054 14.7822C6.23375 14.5625 6.5242 14.3816 6.88763 14.265C7.2963 14.1304 7.81736 14.0826 8.5734 14.3188C8.85071 14.4055 9.02002 14.534 9.13678 14.6835C9.2623 14.842 9.36301 15.0632 9.43745 15.3801C9.51335 15.6985 9.55421 16.0737 9.5834 16.5162C9.59654 16.6806 9.60676 16.8704 9.61697 17.0678C9.63449 17.3548 9.65054 17.6612 9.67389 17.9437C9.75271 18.9452 9.92202 20.0903 10.5117 21.1307C11.1159 22.1965 12.1172 23.0784 13.727 23.6419C16.0652 24.4611 18.202 23.7959 19.8659 22.4461C21.5093 21.1142 22.7208 19.0977 23.3265 17.0812C25.2458 10.6939 23.0185 4.53525 17.2154 1.48284ZM6.40744 3.01801C9.42139 1.12707 12.9637 0.925275 16.5483 2.81173C21.667 5.50538 23.6607 10.8837 21.9311 16.6417C21.3969 18.4206 20.3344 20.1605 18.9595 21.2757C17.6036 22.3743 15.9777 22.8497 14.1999 22.2278C12.8805 21.7645 12.1799 21.0963 11.7727 20.3803C11.3524 19.6373 11.2035 18.7689 11.1276 17.8211C11.1057 17.5386 11.0911 17.283 11.0765 17.0229L11.04 16.41C11.0139 15.9449 10.9524 15.4826 10.8561 15.0273C10.7551 14.5604 10.5559 14.1217 10.2723 13.7418C9.94236 13.332 9.49845 13.0349 8.99959 12.8898C7.97499 12.5684 7.15326 12.6102 6.44538 12.8389C5.89806 13.0183 5.42662 13.3128 5.06466 13.5415L4.85156 13.6715C4.43559 13.9242 4.16266 14.0363 3.85907 14.0213C3.54819 14.0064 3.06654 13.8449 2.29152 13.1992C1.7296 12.7298 1.46396 12.0586 1.45958 11.1961C1.45666 10.3127 1.73106 9.27081 2.22001 8.19156C3.20374 6.0196 4.93768 3.94031 6.4089 3.01801" fill="black" fill-opacity="0.7"/>
</svg>
