<svg width="19" height="21" viewBox="0 0 19 21" fill="none" xmlns="http://www.w3.org/2000/svg">
<path id="Vector" d="M3.55029 21C2.94229 21 2.42476 20.7905 1.99771 20.3715C1.57067 19.9524 1.35714 19.4451 1.35714 18.8494V2.35701H0V1.02536H5.42857V0H13.5714V1.02536H19V2.35701H17.6429V18.8494C17.6429 19.462 17.4339 19.9737 17.0159 20.3848C16.5979 20.7958 16.0758 21.0009 15.4497 21H3.55029ZM16.2857 2.35701H2.71429V18.8494C2.71429 19.0882 2.79255 19.2844 2.94907 19.438C3.10559 19.5916 3.306 19.6684 3.55029 19.6684H15.4511C15.6592 19.6684 15.8505 19.5831 16.0251 19.4127C16.1998 19.2422 16.2866 19.054 16.2857 18.8481V2.35701ZM6.52514 17.0051H7.88229V5.02029H6.52514V17.0051ZM11.1177 17.0051H12.4749V5.02029H11.1177V17.0051Z" fill="black"/>
</svg>
