<svg width="24" height="20" viewBox="0 0 24 20" fill="none" xmlns="http://www.w3.org/2000/svg">
<path d="M0.631579 0.666667V0C0.464074 0 0.303429 0.070238 0.184985 0.195262C0.0665413 0.320287 0 0.489856 0 0.666667H0.631579ZM23.3684 0.666667H24C24 0.489856 23.9335 0.320287 23.815 0.195262C23.6966 0.070238 23.5359 0 23.3684 0V0.666667ZM0.631579 1.33333H23.3684V0H0.631579V1.33333ZM22.7368 0.666667V16.6667H24V0.666667H22.7368ZM20.8421 18.6667H3.15789V20H20.8421V18.6667ZM1.26316 16.6667V0.666667H0V16.6667H1.26316ZM3.15789 18.6667C2.65538 18.6667 2.17345 18.456 1.81811 18.0809C1.46278 17.7058 1.26316 17.1971 1.26316 16.6667H0C0 17.5507 0.332706 18.3986 0.924926 19.0237C1.51715 19.6488 2.32037 20 3.15789 20V18.6667ZM22.7368 16.6667C22.7368 17.1971 22.5372 17.7058 22.1819 18.0809C21.8266 18.456 21.3446 18.6667 20.8421 18.6667V20C21.6796 20 22.4829 19.6488 23.0751 19.0237C23.6673 18.3986 24 17.5507 24 16.6667H22.7368Z" fill="black"/>
<path d="M0.631836 0.666626L12.0003 12.6666L23.3687 0.666626" stroke="black" stroke-linecap="round" stroke-linejoin="round"/>
</svg>
