<svg width="52" height="52" viewBox="0 0 52 52" fill="none" xmlns="http://www.w3.org/2000/svg">
<path d="M35.0909 34.3333C35.0909 31.7024 27.9682 29.5714 19.1818 29.5714M35.0909 34.3333C35.0909 36.9643 27.9682 39.0952 19.1818 39.0952C10.3955 39.0952 3.27273 36.9643 3.27273 34.3333M35.0909 34.3333V46.0881C35.0909 48.8 27.9682 51 19.1818 51C10.3955 51 3.27273 48.8024 3.27273 46.0881V34.3333M35.0909 34.3333C43.7818 34.3333 51 31.9833 51 29.5714V5.7619M19.1818 29.5714C10.3955 29.5714 3.27273 31.7024 3.27273 34.3333M19.1818 29.5714C9.14091 29.5714 1 27.2214 1 24.8095V12.9048M19.1818 8.14286C9.14091 8.14286 1 10.2738 1 12.9048M1 12.9048C1 15.5357 9.14091 17.6667 19.1818 17.6667C19.1818 20.0786 26.575 22.4286 35.2659 22.4286C43.9568 22.4286 51 20.0786 51 17.6667M51 5.7619C51 3.13095 43.9545 1 35.2659 1C26.5773 1 19.5318 3.13095 19.5318 5.7619M51 5.7619C51 8.39286 43.9545 10.5238 35.2659 10.5238C26.5773 10.5238 19.5318 8.39286 19.5318 5.7619M19.5318 5.7619V29.9667" stroke="black" stroke-opacity="0.7" stroke-width="2"/>
</svg>
