<svg width="18" height="24" viewBox="0 0 18 24" fill="none" xmlns="http://www.w3.org/2000/svg">
<path d="M9 0L8.219 0.915561C8.219 0.915561 6.219 3.27042 4.188 6.19787C3.172 7.66355 2.125 9.26309 1.344 10.8089C0.563 12.3547 0 13.836 0 15.2059C0 20.0378 4.055 24 9 24C13.945 24 18 20.0378 18 15.2059C18 13.836 17.437 12.3547 16.656 10.8089C15.875 9.26309 14.828 7.66355 13.813 6.19787C11.781 3.27042 9.781 0.915561 9.781 0.915561L9 0ZM9 3.14437C9.559 3.82054 10.605 5.01848 12.188 7.29713C13.172 8.71395 14.125 10.2744 14.844 11.6942C15.562 13.1149 16 14.4272 16 15.2059C16 18.9727 12.855 22.0458 9 22.0458C5.145 22.0458 2 18.9727 2 15.2059C2 14.4272 2.438 13.1149 3.156 11.6942C3.875 10.2744 4.828 8.71395 5.812 7.29713C7.395 5.01848 8.442 3.82054 9 3.14437ZM4 15.2059C4 17.8891 6.254 20.0915 9 20.0915V18.1373C8.20435 18.1373 7.44129 17.8284 6.87868 17.2787C6.31607 16.729 6 15.9834 6 15.2059H4Z" fill="black" fill-opacity="0.7"/>
</svg>
