<svg width="30" height="30" viewBox="0 0 30 30" fill="none" xmlns="http://www.w3.org/2000/svg">
<g id="Vector">
<mask id="path-1-inside-1_409_1027" fill="white">
<path d="M15.0467 23.7167C15.4156 23.7167 15.7267 23.59 15.98 23.3367C16.2333 23.0833 16.36 22.7722 16.36 22.4033C16.36 22.0344 16.2322 21.7233 15.9767 21.47C15.7233 21.2167 15.4122 21.09 15.0433 21.09C14.6744 21.09 14.3633 21.2172 14.11 21.4717C13.8567 21.7261 13.7306 22.0372 13.7317 22.405C13.7317 22.7739 13.8583 23.085 14.1117 23.3383C14.3672 23.5917 14.6789 23.7183 15.0467 23.7183M14.185 18.1983H15.795C15.8372 17.4739 15.9733 16.885 16.2033 16.4317C16.4333 15.9794 16.9061 15.4017 17.6217 14.6983C18.3661 13.955 18.9194 13.2889 19.2817 12.7C19.6439 12.1111 19.8256 11.43 19.8267 10.6567C19.8267 9.34333 19.3656 8.29667 18.4433 7.51667C17.52 6.73667 16.4278 6.34667 15.1667 6.34667C13.9678 6.34667 12.95 6.67222 12.1133 7.32333C11.2767 7.97555 10.6639 8.72444 10.275 9.57L11.8083 10.205C12.075 9.59833 12.4567 9.06222 12.9533 8.59667C13.45 8.13 14.1667 7.89667 15.1033 7.89667C16.1833 7.89667 16.9722 8.19333 17.47 8.78667C17.9689 9.38 18.2183 10.0322 18.2183 10.7433C18.2183 11.3211 18.0622 11.8367 17.75 12.29C17.4389 12.7444 17.0333 13.2011 16.5333 13.66C15.5667 14.5511 14.9333 15.3067 14.6333 15.9267C14.3333 16.5467 14.1839 17.3039 14.185 18.1983ZM15.005 30C12.9317 30 10.9817 29.6067 9.155 28.82C7.32944 28.0322 5.74111 26.9633 4.39 25.6133C3.03889 24.2633 1.96944 22.6767 1.18167 20.8533C0.393889 19.03 0 17.0806 0 15.005C0 12.9294 0.393889 10.9794 1.18167 9.155C1.96833 7.32944 3.03556 5.74111 4.38333 4.39C5.73111 3.03889 7.31833 1.96944 9.145 1.18167C10.9717 0.393889 12.9217 0 14.995 0C17.0683 0 19.0183 0.393889 20.845 1.18167C22.6706 1.96833 24.2589 3.03611 25.61 4.385C26.9611 5.73389 28.0306 7.32111 28.8183 9.14667C29.6061 10.9722 30 12.9217 30 14.995C30 17.0683 29.6067 19.0183 28.82 20.845C28.0333 22.6717 26.9644 24.26 25.6133 25.61C24.2622 26.96 22.6756 28.0294 20.8533 28.8183C19.0311 29.6072 17.0817 30.0011 15.005 30ZM15 28.3333C18.7222 28.3333 21.875 27.0417 24.4583 24.4583C27.0417 21.875 28.3333 18.7222 28.3333 15C28.3333 11.2778 27.0417 8.125 24.4583 5.54167C21.875 2.95833 18.7222 1.66667 15 1.66667C11.2778 1.66667 8.125 2.95833 5.54167 5.54167C2.95833 8.125 1.66667 11.2778 1.66667 15C1.66667 18.7222 2.95833 21.875 5.54167 24.4583C8.125 27.0417 11.2778 28.3333 15 28.3333Z"/>
</mask>
<path d="M15.98 23.3367L15.2729 22.6296L15.98 23.3367ZM15.9767 21.47L15.2696 22.1771L15.2727 22.1802L15.9767 21.47ZM13.7317 22.405H14.7317L14.7317 22.402L13.7317 22.405ZM14.1117 23.3383L13.4046 24.0454L13.4077 24.0485L14.1117 23.3383ZM14.185 18.1983L13.185 18.1996L13.1862 19.1983H14.185V18.1983ZM15.795 18.1983V19.1983H16.7384L16.7933 18.2565L15.795 18.1983ZM16.2033 16.4317L15.312 15.9783L15.3115 15.9792L16.2033 16.4317ZM17.6217 14.6983L18.3227 15.4115L18.3282 15.406L17.6217 14.6983ZM19.8267 10.6567L20.8267 10.6581V10.6567H19.8267ZM18.4433 7.51667L19.0891 6.75314L19.0887 6.75276L18.4433 7.51667ZM12.1133 7.32333L11.4992 6.53415L11.4985 6.53466L12.1133 7.32333ZM10.275 9.57L9.36648 9.15215L8.93225 10.0963L9.89238 10.4939L10.275 9.57ZM11.8083 10.205L11.4257 11.1289L12.33 11.5034L12.7238 10.6074L11.8083 10.205ZM12.9533 8.59667L13.6372 9.32625L13.6381 9.32544L12.9533 8.59667ZM17.47 8.78667L16.7039 9.42939L16.7046 9.43023L17.47 8.78667ZM17.75 12.29L16.9264 11.7228L16.9248 11.7251L17.75 12.29ZM16.5333 13.66L15.8572 12.9233L15.8555 12.9247L16.5333 13.66ZM15.005 30L15.0055 29H15.005V30ZM9.155 28.82L8.75879 29.7382L8.75946 29.7384L9.155 28.82ZM1.18167 9.155L2.09974 9.55141L2.10003 9.55074L1.18167 9.155ZM20.845 1.18167L20.449 2.09991L20.4493 2.10003L20.845 1.18167ZM15 28.3333V27.3333V28.3333ZM15.0467 24.7167C15.672 24.7167 16.2401 24.4908 16.6871 24.0438L15.2729 22.6296C15.2132 22.6892 15.1591 22.7167 15.0467 22.7167V24.7167ZM16.6871 24.0438C17.1341 23.5968 17.36 23.0286 17.36 22.4033H15.36C15.36 22.5158 15.3326 22.5699 15.2729 22.6296L16.6871 24.0438ZM17.36 22.4033C17.36 21.7752 17.1309 21.2062 16.6807 20.7598L15.2727 22.1802C15.3335 22.2405 15.36 22.2936 15.36 22.4033H17.36ZM16.6838 20.7629C16.2368 20.3159 15.6686 20.09 15.0433 20.09V22.09C15.1558 22.09 15.2099 22.1174 15.2696 22.1771L16.6838 20.7629ZM15.0433 20.09C14.4166 20.09 13.848 20.3175 13.4013 20.7661L14.8187 22.1772C14.8786 22.117 14.9323 22.09 15.0433 22.09V20.09ZM13.4013 20.7661C12.9556 21.2138 12.7298 21.782 12.7317 22.408L14.7317 22.402C14.7313 22.2925 14.7577 22.2385 14.8187 22.1772L13.4013 20.7661ZM12.7317 22.405C12.7317 23.0303 12.9576 23.5984 13.4046 24.0454L14.8188 22.6312C14.7591 22.5716 14.7317 22.5175 14.7317 22.405H12.7317ZM13.4077 24.0485C13.8551 24.492 14.4217 24.7183 15.0467 24.7183V22.7183C14.9361 22.7183 14.8794 22.6913 14.8157 22.6281L13.4077 24.0485ZM14.185 19.1983H15.795V17.1983H14.185V19.1983ZM16.7933 18.2565C16.8307 17.6151 16.948 17.1741 17.0951 16.8841L15.3115 15.9792C14.9987 16.5959 14.8438 17.3327 14.7967 18.1401L16.7933 18.2565ZM17.0947 16.885C17.2483 16.583 17.6242 16.0981 18.3227 15.4115L16.9207 13.9852C16.188 14.7053 15.6184 15.3759 15.312 15.9783L17.0947 16.885ZM18.3282 15.406C19.1026 14.6328 19.7148 13.9045 20.1334 13.2239L18.4299 12.1761C18.1241 12.6733 17.6297 13.2772 16.9151 13.9907L18.3282 15.406ZM20.1334 13.2239C20.6035 12.4598 20.8253 11.5935 20.8267 10.6581L18.8267 10.6552C18.8258 11.2665 18.6843 11.7625 18.4299 12.1761L20.1334 13.2239ZM20.8267 10.6567C20.8267 9.07823 20.2573 7.74118 19.0891 6.75314L17.7976 8.28019C18.4738 8.85215 18.8267 9.60844 18.8267 10.6567H20.8267ZM19.0887 6.75276C17.9765 5.81327 16.6529 5.34667 15.1667 5.34667V7.34667C16.2027 7.34667 17.0635 7.66007 17.798 8.28058L19.0887 6.75276ZM15.1667 5.34667C13.7759 5.34667 12.5341 5.72872 11.4992 6.53415L12.7275 8.11252C13.3659 7.61572 14.1596 7.34667 15.1667 7.34667V5.34667ZM11.4985 6.53466C10.5535 7.27136 9.83103 8.14209 9.36648 9.15215L11.1835 9.98785C11.4967 9.30679 11.9998 8.67975 12.7281 8.11201L11.4985 6.53466ZM9.89238 10.4939L11.4257 11.1289L12.191 9.28109L10.6576 8.64609L9.89238 10.4939ZM12.7238 10.6074C12.9346 10.1277 13.2363 9.70207 13.6372 9.32625L12.2694 7.86708C11.677 8.42237 11.2154 9.06895 10.8929 9.8026L12.7238 10.6074ZM13.6381 9.32544C13.8893 9.0894 14.3247 8.89667 15.1033 8.89667V6.89667C14.0087 6.89667 13.0107 7.1706 12.2686 7.86789L13.6381 9.32544ZM15.1033 8.89667C16.0097 8.89667 16.4626 9.14177 16.7039 9.42939L18.2361 8.14395C17.4818 7.2449 16.357 6.89667 15.1033 6.89667V8.89667ZM16.7046 9.43023C17.0666 9.86079 17.2183 10.2895 17.2183 10.7433H19.2183C19.2183 9.77495 18.8711 8.89921 18.2354 8.1431L16.7046 9.43023ZM17.2183 10.7433C17.2183 11.1292 17.1179 11.4448 16.9264 11.7228L18.5736 12.8572C19.0066 12.2285 19.2183 11.513 19.2183 10.7433H17.2183ZM16.9248 11.7251C16.6653 12.1043 16.3135 12.5044 15.8572 12.9233L17.2095 14.3967C17.7532 13.8978 18.2125 13.3846 18.5752 12.8549L16.9248 11.7251ZM15.8555 12.9247C14.8649 13.8379 14.1174 14.6971 13.7332 15.4911L15.5335 16.3622C15.7493 15.9163 16.2684 15.2643 17.2111 14.3953L15.8555 12.9247ZM13.7332 15.4911C13.3506 16.2817 13.1838 17.1973 13.185 18.1996L15.185 18.1971C15.184 17.4104 15.316 16.8117 15.5335 16.3622L13.7332 15.4911ZM15.005 29C13.0618 29 11.247 28.6321 9.55054 27.9015L8.75946 29.7384C10.7164 30.5812 12.8015 31 15.005 31V29ZM9.55121 27.9018C7.83673 27.162 6.35497 26.1631 5.09682 24.9059L3.68318 26.3207C5.12725 27.7636 6.82215 28.9024 8.75879 29.7382L9.55121 27.9018ZM5.09682 24.9059C3.83866 23.6488 2.83934 22.1688 2.09965 20.4567L0.263683 21.25C1.09955 23.1846 2.23912 24.8779 3.68318 26.3207L5.09682 24.9059ZM2.09965 20.4567C1.36841 18.7642 1 16.9504 1 15.005H-1C-1 17.2107 -0.580628 19.2958 0.263683 21.25L2.09965 20.4567ZM1 15.005C1 13.0596 1.36841 11.2451 2.09974 9.55141L0.263595 8.75858C-0.580628 10.7138 -1 12.7993 -1 15.005H1ZM2.10003 9.55074C2.83889 7.83612 3.83631 6.35434 5.09131 5.09623L3.67535 3.68377C2.2348 5.12788 1.09778 6.82277 0.263304 8.75926L2.10003 9.55074ZM5.09131 5.09623C6.34571 3.83873 7.82582 2.83962 9.54101 2.09991L8.74899 0.26342C6.81085 1.09927 5.11651 2.23904 3.67535 3.68377L5.09131 5.09623ZM9.54101 2.09991C11.2373 1.36835 13.052 1 14.995 1V-1C12.7913 -1 10.706 -0.58057 8.74899 0.26342L9.54101 2.09991ZM14.995 1C16.938 1 18.7527 1.36835 20.449 2.09991L21.241 0.26342C19.284 -0.58057 17.1987 -1 14.995 -1V1ZM20.4493 2.10003C22.1637 2.83882 23.6454 3.83668 24.9035 5.09269L26.3165 3.67731C24.8724 2.23554 23.1774 1.09785 21.2407 0.263304L20.4493 2.10003ZM24.9035 5.09269C26.1613 6.3484 27.1605 7.82871 27.9002 9.54288L29.7365 8.75045C28.9006 6.81351 27.761 5.11938 26.3165 3.67731L24.9035 5.09269ZM27.9002 9.54288C28.6317 11.238 29 13.052 29 14.995H31C31 12.7913 30.5806 10.7065 29.7365 8.75045L27.9002 9.54288ZM29 14.995C29 16.9382 28.6321 18.753 27.9015 20.4495L29.7384 21.2405C30.5812 19.2836 31 17.1985 31 14.995H29ZM27.9015 20.4495C27.1629 22.1646 26.1643 23.6459 24.9065 24.9026L26.3201 26.3174C27.7646 24.8741 28.9037 23.1787 29.7384 21.2405L27.9015 20.4495ZM24.9065 24.9026C23.6479 26.1601 22.1674 27.1597 20.456 27.9006L21.2506 29.736C23.1837 28.8992 24.8765 27.7599 26.3201 26.3174L24.9065 24.9026ZM20.456 27.9006C18.7651 28.6327 16.9518 29.001 15.0055 29L15.0045 31C17.2116 31.0012 19.2971 30.5818 21.2506 29.736L20.456 27.9006ZM15 29.3333C18.9818 29.3333 22.3906 27.9402 25.1654 25.1654L23.7512 23.7512C21.3594 26.1431 18.4626 27.3333 15 27.3333V29.3333ZM25.1654 25.1654C27.9402 22.3906 29.3333 18.9818 29.3333 15H27.3333C27.3333 18.4626 26.1431 21.3594 23.7512 23.7512L25.1654 25.1654ZM29.3333 15C29.3333 11.0182 27.9402 7.60935 25.1654 4.83456L23.7512 6.24877C26.1431 8.64064 27.3333 11.5374 27.3333 15H29.3333ZM25.1654 4.83456C22.3906 2.05976 18.9818 0.666667 15 0.666667V2.66667C18.4626 2.66667 21.3594 3.8569 23.7512 6.24877L25.1654 4.83456ZM15 0.666667C11.0182 0.666667 7.60936 2.05976 4.83456 4.83456L6.24877 6.24877C8.64064 3.8569 11.5374 2.66667 15 2.66667V0.666667ZM4.83456 4.83456C2.05976 7.60935 0.666667 11.0182 0.666667 15H2.66667C2.66667 11.5374 3.8569 8.64064 6.24877 6.24877L4.83456 4.83456ZM0.666667 15C0.666667 18.9818 2.05976 22.3906 4.83456 25.1654L6.24877 23.7512C3.8569 21.3594 2.66667 18.4626 2.66667 15H0.666667ZM4.83456 25.1654C7.60936 27.9402 11.0182 29.3333 15 29.3333V27.3333C11.5374 27.3333 8.64064 26.1431 6.24877 23.7512L4.83456 25.1654Z" fill="black" mask="url(#path-1-inside-1_409_1027)"/>
</g>
</svg>
