<svg width="25" height="24" viewBox="0 0 25 24" fill="none" xmlns="http://www.w3.org/2000/svg">
<path d="M22.3678 9.47437C22.3678 9.30687 22.2985 9.14623 22.1751 9.02779C22.0517 8.90936 21.8844 8.84282 21.7099 8.84282C21.5354 8.84282 21.3681 8.90936 21.2447 9.02779C21.1214 9.14623 21.0521 9.30687 21.0521 9.47437H22.3678ZM3.94794 9.47437C3.94794 9.30687 3.87863 9.14623 3.75526 9.02779C3.63189 8.90936 3.46456 8.84282 3.29009 8.84282C3.11561 8.84282 2.94829 8.90936 2.82492 9.02779C2.70154 9.14623 2.63224 9.30687 2.63224 9.47437H3.94794ZM23.8756 12.4477C23.9991 12.5663 24.1666 12.6329 24.3413 12.6329C24.516 12.6329 24.6835 12.5663 24.8071 12.4477C24.9306 12.3291 25 12.1683 25 12.0006C25 11.8329 24.9306 11.672 24.8071 11.5534L23.8756 12.4477ZM12.5 0.632678L12.9658 0.185541C12.9047 0.126727 12.8321 0.080065 12.7521 0.0482267C12.6722 0.0163885 12.5865 0 12.5 0C12.4135 0 12.3278 0.0163885 12.2479 0.0482267C12.1679 0.080065 12.0954 0.126727 12.0342 0.185541L12.5 0.632678ZM0.192923 11.5534C0.0693965 11.672 0 11.8329 0 12.0006C0 12.1683 0.0693965 12.3291 0.192923 12.4477C0.31645 12.5663 0.483989 12.6329 0.658682 12.6329C0.833375 12.6329 1.00091 12.5663 1.12444 12.4477L0.192923 11.5534ZM5.92149 24H19.0785V22.7369H5.92149V24ZM22.3678 20.8423V9.47437H21.0521V20.8423H22.3678ZM3.94794 20.8423V9.47437H2.63224V20.8423H3.94794ZM24.8071 11.5534L12.9658 0.185541L12.0342 1.07982L23.8756 12.4477L24.8071 11.5534ZM12.0342 0.185541L0.192923 11.5534L1.12444 12.4477L12.9658 1.07982L12.0342 0.185541ZM19.0785 24C19.9509 24 20.7875 23.6673 21.4044 23.0751C22.0212 22.4829 22.3678 21.6797 22.3678 20.8423H21.0521C21.0521 21.3447 20.8441 21.8267 20.474 22.182C20.1039 22.5373 19.6019 22.7369 19.0785 22.7369V24ZM5.92149 22.7369C5.39807 22.7369 4.89609 22.5373 4.52598 22.182C4.15586 21.8267 3.94794 21.3447 3.94794 20.8423H2.63224C2.63224 21.6797 2.97878 22.4829 3.59564 23.0751C4.21249 23.6673 5.04913 24 5.92149 24V22.7369Z" fill="black" fill-opacity="0.7"/>
</svg>
