<svg width="27" height="25" viewBox="0 0 27 25" fill="none" xmlns="http://www.w3.org/2000/svg">
<g id="Group">
<path id="Vector" d="M16 20.925C20.7137 20.925 23.0712 20.925 24.535 19.4655C26 18.0072 26 15.6586 26 10.9625C26 6.26642 26 3.91776 24.535 2.4595C23.0712 1 20.7137 1 16 1H11C6.28625 1 3.92875 1 2.465 2.4595C1 3.91776 1 6.26642 1 10.9625C1 15.6586 1 18.0072 2.465 19.4655C3.28125 20.2799 4.375 20.6398 6 20.798" stroke="black" stroke-width="2" stroke-linecap="round" stroke-linejoin="round"/>
<path id="Vector_2" d="M16.0005 20.925C14.4555 20.925 12.753 21.5476 11.1993 22.3509C8.7018 23.6422 7.45305 24.2886 6.83805 23.8764C6.22305 23.4654 6.3393 22.189 6.57305 19.6373L6.62554 19.057" stroke="black" stroke-width="2" stroke-linecap="round"/>
<path id="Vector_3" d="M5.375 14.0758L6.625 11.5851M6.625 11.5851L8.0075 8.83174C8.11142 8.62517 8.27099 8.45148 8.46834 8.33009C8.6657 8.2087 8.89306 8.14442 9.125 8.14442C9.35694 8.14442 9.5843 8.2087 9.78166 8.33009C9.97901 8.45148 10.1386 8.62517 10.2425 8.83174L11.625 11.5851M6.625 11.5851H11.625M11.625 11.5851L12.875 14.0758M14.125 6.60388H16.6025V8.47185C16.6025 9.0945 15.9825 10.3398 14.7437 10.3398M19.6987 6.60388V9.0945M19.6987 9.0945V14.0758M19.6987 9.0945H21.625" stroke="black" stroke-width="2" stroke-linecap="round" stroke-linejoin="round"/>
</g>
</svg>
