<svg width="22" height="27" viewBox="0 0 22 27" fill="none" xmlns="http://www.w3.org/2000/svg">
<path fill-rule="evenodd" clip-rule="evenodd" d="M10.5735 27.4958L11.5803 26.3213C12.7228 24.9668 13.7503 23.6816 14.6646 22.4593L15.4193 21.4285C18.5706 17.0329 20.147 13.5442 20.147 10.9656C20.147 5.46166 15.8613 1 10.5735 1C5.28574 1 1 5.46166 1 10.9656C1 13.5442 2.57644 17.0329 5.72771 21.4285L6.48242 22.4593C7.78672 24.1894 9.15131 25.8682 10.5735 27.4958Z" stroke="black" stroke-opacity="0.7" stroke-width="2" stroke-linecap="round" stroke-linejoin="round"/>
<path d="M10.5734 15.0405C12.7765 15.0405 14.5624 13.1916 14.5624 10.9109C14.5624 8.63015 12.7765 6.78125 10.5734 6.78125C8.37039 6.78125 6.58447 8.63015 6.58447 10.9109C6.58447 13.1916 8.37039 15.0405 10.5734 15.0405Z" fill="black" fill-opacity="0.7" stroke="black" stroke-opacity="0.7" stroke-width="2" stroke-linecap="round" stroke-linejoin="round"/>
</svg>
