<svg width="24" height="24" viewBox="0 0 24 24" fill="none" xmlns="http://www.w3.org/2000/svg">
<mask id="path-1-inside-1_273_401" fill="white">
<path d="M1.26316 22.2189L5.79789 17.6842H20.2105C20.8805 17.6842 21.5231 17.418 21.9969 16.9443C22.4707 16.4705 22.7368 15.8279 22.7368 15.1579V3.78947C22.7368 3.11945 22.4707 2.47687 21.9969 2.0031C21.5231 1.52932 20.8805 1.26316 20.2105 1.26316H3.78947C3.11945 1.26316 2.47687 1.52932 2.0031 2.0031C1.52932 2.47687 1.26316 3.11945 1.26316 3.78947V22.2189ZM1.26316 24H0V3.78947C0 2.78444 0.399247 1.82058 1.10991 1.10991C1.82058 0.399247 2.78444 0 3.78947 0H20.2105C21.2156 0 22.1794 0.399247 22.8901 1.10991C23.6008 1.82058 24 2.78444 24 3.78947V15.1579C24 16.1629 23.6008 17.1268 22.8901 17.8375C22.1794 18.5481 21.2156 17.6842 20.2105 17.6842L6.31579 18.9474L1.26316 24Z"/>
</mask>
<path d="M1.26316 22.2189H-0.736842V27.0474L2.67737 23.6332L1.26316 22.2189ZM5.79789 17.6842V15.6842H4.96947L4.38368 16.27L5.79789 17.6842ZM20.2105 1.26316V-0.736842V1.26316ZM3.78947 1.26316V-0.736842V1.26316ZM1.26316 3.78947H-0.736842H1.26316ZM1.26316 24V26H2.09159L2.67737 25.4142L1.26316 24ZM0 24H-2V26H0V24ZM0 3.78947H-2H0ZM3.78947 0V-2V0ZM24 3.78947H26H24ZM24 15.1579H26H24ZM6.31579 18.9474L6.13472 16.9556L5.41359 17.0211L4.90158 17.5332L6.31579 18.9474ZM2.67737 23.6332L7.21211 19.0984L4.38368 16.27L-0.151056 20.8047L2.67737 23.6332ZM5.79789 19.6842H20.2105V15.6842H5.79789V19.6842ZM20.2105 19.6842C21.411 19.6842 22.5623 19.2073 23.4111 18.3585L20.5827 15.5301C20.484 15.6288 20.3501 15.6842 20.2105 15.6842V19.6842ZM23.4111 18.3585C24.26 17.5096 24.7368 16.3584 24.7368 15.1579H20.7368C20.7368 15.2975 20.6814 15.4314 20.5827 15.5301L23.4111 18.3585ZM24.7368 15.1579V3.78947H20.7368V15.1579H24.7368ZM24.7368 3.78947C24.7368 2.58902 24.26 1.43773 23.4111 0.588885L20.5827 3.41731C20.6814 3.51602 20.7368 3.64989 20.7368 3.78947H24.7368ZM23.4111 0.588885C22.5623 -0.259964 21.411 -0.736842 20.2105 -0.736842V3.26316C20.3501 3.26316 20.484 3.31861 20.5827 3.41731L23.4111 0.588885ZM20.2105 -0.736842H3.78947V3.26316H20.2105V-0.736842ZM3.78947 -0.736842C2.58902 -0.736842 1.43773 -0.259965 0.588885 0.588885L3.41731 3.41731C3.51601 3.31861 3.64989 3.26316 3.78947 3.26316V-0.736842ZM0.588885 0.588885C-0.259965 1.43773 -0.736842 2.58902 -0.736842 3.78947H3.26316C3.26316 3.64989 3.31861 3.51601 3.41731 3.41731L0.588885 0.588885ZM-0.736842 3.78947V22.2189H3.26316V3.78947H-0.736842ZM1.26316 22H0V26H1.26316V22ZM2 24V3.78947H-2V24H2ZM2 3.78947C2 3.31488 2.18853 2.85972 2.52412 2.52412L-0.304302 -0.304302C-1.39004 0.781435 -2 2.25401 -2 3.78947H2ZM2.52412 2.52412C2.85972 2.18853 3.31488 2 3.78947 2V-2C2.25401 -2 0.781435 -1.39004 -0.304302 -0.304302L2.52412 2.52412ZM3.78947 2H20.2105V-2H3.78947V2ZM20.2105 2C20.6851 2 21.1403 2.18853 21.4759 2.52412L24.3043 -0.304302C23.2186 -1.39004 21.746 -2 20.2105 -2V2ZM21.4759 2.52412C21.8115 2.85971 22 3.31487 22 3.78947H26C26 2.25401 25.39 0.781437 24.3043 -0.304302L21.4759 2.52412ZM22 3.78947V15.1579H26V3.78947H22ZM22 15.1579C22 15.6325 21.8115 16.0877 21.4759 16.4232L24.3043 19.2517C25.39 18.1659 26 16.6934 26 15.1579H22ZM21.4759 16.4232C21.5424 16.3567 21.6422 16.2797 21.7751 16.2185C21.9073 16.1576 22.0321 16.1307 22.1298 16.1217C22.2922 16.1068 22.3568 16.1452 22.1985 16.101C22.1292 16.0817 22.0502 16.0566 21.9274 16.0169C21.8169 15.9812 21.6647 15.9317 21.5065 15.8861C21.1934 15.796 20.7363 15.6842 20.2105 15.6842V19.6842C20.1873 19.6842 20.2275 19.6804 20.4 19.7301C20.4846 19.7544 20.5723 19.7827 20.6979 19.8233C20.8112 19.8599 20.9645 19.9094 21.1229 19.9537C21.7165 20.1194 23.1307 20.4253 24.3043 19.2517L21.4759 16.4232ZM20.0295 15.6924L6.13472 16.9556L6.49686 20.9392L20.3916 19.676L20.0295 15.6924ZM4.90158 17.5332L-0.151056 22.5858L2.67737 25.4142L7.73 20.3616L4.90158 17.5332Z" fill="#FFCB2F" mask="url(#path-1-inside-1_273_401)"/>
</svg>
