<svg width="30" height="30" viewBox="0 0 30 30" fill="none" xmlns="http://www.w3.org/2000/svg">
<path d="M25.6486 7.80506C25.6487 7.65383 25.6191 7.50405 25.5613 7.3643C25.5035 7.22455 25.4187 7.09757 25.3117 6.99064C25.2048 6.8837 25.0778 6.79891 24.9381 6.74111C24.7983 6.68331 24.6486 6.65364 24.4973 6.65381H5.50232C5.35109 6.65364 5.20132 6.68331 5.06157 6.74111C4.92182 6.79891 4.79484 6.8837 4.6879 6.99064C4.58097 7.09757 4.49617 7.22455 4.43837 7.3643C4.38058 7.50405 4.35091 7.65383 4.35107 7.80506V22.1951C4.35091 22.3463 4.38058 22.4961 4.43837 22.6358C4.49617 22.7756 4.58097 22.9025 4.6879 23.0095C4.79484 23.1164 4.92182 23.2012 5.06157 23.259C5.20132 23.3168 5.35109 23.3465 5.50232 23.3463H24.4973C24.6486 23.3465 24.7983 23.3168 24.9381 23.259C25.0778 23.2012 25.2048 23.1164 25.3117 23.0095C25.4187 22.9025 25.5035 22.7756 25.5613 22.6358C25.6191 22.4961 25.6487 22.3463 25.6486 22.1951V7.80506Z" stroke="black" stroke-opacity="0.7" stroke-linecap="round" stroke-linejoin="round"/>
<path d="M23.7876 6.65371L23.4239 5.29371C23.3849 5.14762 23.3174 5.01065 23.2254 4.89066C23.1334 4.77066 23.0186 4.66999 22.8876 4.5944C22.7567 4.51882 22.6121 4.46981 22.4622 4.45017C22.3122 4.43053 22.1599 4.44066 22.0139 4.47996L13.9014 6.65371M25.6489 20.7875L26.3339 20.6037C26.48 20.5648 26.617 20.4974 26.7371 20.4054C26.8572 20.3134 26.9579 20.1986 27.0336 20.0677C27.1092 19.9367 27.1583 19.7921 27.178 19.6421C27.1976 19.4921 27.1875 19.3398 27.1482 19.1937L25.6482 13.5981M6.21262 23.3462L6.57637 24.7062C6.61538 24.8523 6.68283 24.9893 6.77484 25.1093C6.86685 25.2293 6.98163 25.3299 7.1126 25.4055C7.24356 25.4811 7.38815 25.5301 7.53808 25.5498C7.68802 25.5694 7.84035 25.5593 7.98637 25.52L16.0989 23.3462M4.35137 9.21246L3.66637 9.39621C3.52022 9.43516 3.38318 9.50256 3.26312 9.59454C3.14305 9.68653 3.04231 9.80129 2.96667 9.93227C2.89102 10.0632 2.84195 10.2079 2.82227 10.3578C2.8026 10.5078 2.8127 10.6602 2.85199 10.8062L4.36074 16.4362M8.09262 10.1075H21.907M8.09262 13.3693H21.907M8.09262 16.6306H21.907M8.09262 19.8925H15.0001" stroke="black" stroke-opacity="0.7" stroke-linecap="round" stroke-linejoin="round"/>
</svg>
