<svg width="24" height="31" viewBox="0 0 24 31" fill="none" xmlns="http://www.w3.org/2000/svg">
<g id="Group">
<path id="Vector" d="M3.75 26.0994V14.3994C3.75 12.3307 4.61919 10.3467 6.16637 8.88393C7.71354 7.42115 9.81196 6.59937 12 6.59937C14.188 6.59937 16.2865 7.42115 17.8336 8.88393C19.3808 10.3467 20.25 12.3307 20.25 14.3994V26.0994M3.75 26.0994H20.25M3.75 26.0994H1M20.25 26.0994H23M10.625 29.9994H13.375" stroke="black" stroke-width="2" stroke-linecap="round" stroke-linejoin="round"/>
<path id="Vector_2" d="M12 3.6C12.7594 3.6 13.375 3.01797 13.375 2.3C13.375 1.58203 12.7594 1 12 1C11.2406 1 10.625 1.58203 10.625 2.3C10.625 3.01797 11.2406 3.6 12 3.6Z" stroke="black" stroke-width="2"/>
</g>
</svg>
