<svg width="24" height="24" viewBox="0 0 24 24" fill="none" xmlns="http://www.w3.org/2000/svg">
<g clip-path="url(#clip0_491_1983)">
<path d="M21.6 24H2.4C1.072 24 0 22.995 0 21.75V2.25C0 1.005 1.072 0 2.4 0H21.6C22.928 0 24 1.005 24 2.25V21.75C24 22.995 22.928 24 21.6 24ZM2.4 1.5C1.952 1.5 1.6 1.83 1.6 2.25V21.75C1.6 22.17 1.952 22.5 2.4 22.5H21.6C22.048 22.5 22.4 22.17 22.4 21.75V2.25C22.4 1.83 22.048 1.5 21.6 1.5H2.4Z" fill="black" fill-opacity="0.7"/>
<path d="M11.856 18C14.512 18 16 16.2 16 14.19C16 12.18 14.288 10.65 12.176 10.59V10.485L15.52 7.5V6H8.4V7.5H13.6V7.68L10.4 10.5V11.82L11.824 11.775C13.36 11.775 14.528 12.75 14.528 14.235C14.528 15.72 13.44 16.725 11.856 16.725C10.4 16.725 9.392 15.78 9.344 14.55H8C8 16.08 9.296 18 11.856 18Z" fill="black" fill-opacity="0.7"/>
</g>
<defs>
<clipPath id="clip0_491_1983">
<rect width="24" height="24" fill="white"/>
</clipPath>
</defs>
</svg>
