<svg width="35" height="30" viewBox="0 0 35 30" fill="none" xmlns="http://www.w3.org/2000/svg">
<path id="Vector" d="M6.98667 30V28.0152H9.43L12.56 15.4238C12.7189 14.7158 13.0383 14.1561 13.5183 13.7446C13.9983 13.3331 14.535 13.128 15.1283 13.1293H19.8717C20.4661 13.1293 21.0028 13.3344 21.4817 13.7446C21.9617 14.1561 22.2811 14.7158 22.44 15.4238L25.57 28.0152H28.0133V30H6.98667ZM16.6667 7.93913V0H18.3333V7.93913H16.6667ZM25.75 12.4307L24.5617 11.0155L29.2917 5.43037L30.44 6.79788L25.75 12.4307ZM28.3333 21.8326V19.8478H35V21.8326H28.3333ZM9.25 12.4287L4.56167 6.79788L5.70833 5.43037L10.44 11.0155L9.25 12.4287ZM0 21.8326V19.8478H6.66667V21.8326H0Z" fill="black"/>
</svg>
