<svg width="32" height="32" viewBox="0 0 32 32" fill="none" xmlns="http://www.w3.org/2000/svg">
<g id="Group">
<g id="Vector">
<mask id="path-1-inside-1_524_2507" fill="white">
<path fill-rule="evenodd" clip-rule="evenodd" d="M16.9504 31.1019L16.9312 31.1051L16.8176 31.1617L16.7856 31.1681L16.7632 31.1617L16.6496 31.1035C16.6325 31.0992 16.6197 31.1024 16.6112 31.1132L16.6048 31.1294L16.5776 31.8206L16.5856 31.8529L16.6016 31.8739L16.768 31.9934L16.792 31.9999L16.8112 31.9934L16.9776 31.8739L16.9968 31.8481L17.0032 31.8206L16.976 31.131C16.9717 31.1138 16.9632 31.1041 16.9504 31.1019ZM17.3728 30.9194L17.3504 30.9226L17.056 31.0728L17.04 31.089L17.0352 31.1068L17.064 31.8012L17.072 31.8206L17.0848 31.8335L17.4064 31.9821C17.4266 31.9875 17.4421 31.9832 17.4528 31.9692L17.4592 31.9466L17.4048 30.9549C17.3994 30.9345 17.3888 30.9226 17.3728 30.9194ZM16.2288 30.9226C16.2217 30.9183 16.2133 30.9169 16.2053 30.9187C16.1972 30.9205 16.1902 30.9254 16.1856 30.9323L16.176 30.9549L16.1216 31.9466C16.1226 31.9659 16.1317 31.9789 16.1488 31.9853L16.1728 31.9821L16.4944 31.8319L16.5104 31.819L16.5152 31.8012L16.544 31.1068L16.5392 31.0874L16.5232 31.0712L16.2288 30.9226Z"/>
</mask>
<path fill-rule="evenodd" clip-rule="evenodd" d="M16.9504 31.1019L16.9312 31.1051L16.8176 31.1617L16.7856 31.1681L16.7632 31.1617L16.6496 31.1035C16.6325 31.0992 16.6197 31.1024 16.6112 31.1132L16.6048 31.1294L16.5776 31.8206L16.5856 31.8529L16.6016 31.8739L16.768 31.9934L16.792 31.9999L16.8112 31.9934L16.9776 31.8739L16.9968 31.8481L17.0032 31.8206L16.976 31.131C16.9717 31.1138 16.9632 31.1041 16.9504 31.1019ZM17.3728 30.9194L17.3504 30.9226L17.056 31.0728L17.04 31.089L17.0352 31.1068L17.064 31.8012L17.072 31.8206L17.0848 31.8335L17.4064 31.9821C17.4266 31.9875 17.4421 31.9832 17.4528 31.9692L17.4592 31.9466L17.4048 30.9549C17.3994 30.9345 17.3888 30.9226 17.3728 30.9194ZM16.2288 30.9226C16.2217 30.9183 16.2133 30.9169 16.2053 30.9187C16.1972 30.9205 16.1902 30.9254 16.1856 30.9323L16.176 30.9549L16.1216 31.9466C16.1226 31.9659 16.1317 31.9789 16.1488 31.9853L16.1728 31.9821L16.4944 31.8319L16.5104 31.819L16.5152 31.8012L16.544 31.1068L16.5392 31.0874L16.5232 31.0712L16.2288 30.9226Z" fill="black"/>
<path d="M16.9504 31.1019L17.1163 30.1158L16.9503 30.0879L16.7844 30.1158L16.9504 31.1019ZM16.9312 31.1051L16.7652 30.119L16.6187 30.1437L16.4857 30.2099L16.9312 31.1051ZM16.8176 31.1617L17.0155 32.1419L17.1449 32.1158L17.2631 32.057L16.8176 31.1617ZM16.7856 31.1681L16.5085 32.129L16.7436 32.1968L16.9835 32.1484L16.7856 31.1681ZM16.7632 31.1617L16.3076 32.0519L16.3934 32.0958L16.4861 32.1225L16.7632 31.1617ZM16.6496 31.1035L17.1052 30.2133L17.0042 30.1617L16.8943 30.1339L16.6496 31.1035ZM16.6112 31.1132L15.8275 30.4921L15.7358 30.6077L15.6815 30.7448L16.6112 31.1132ZM16.6048 31.1294L15.6751 30.761L15.6123 30.9196L15.6056 31.09L16.6048 31.1294ZM16.5776 31.8206L15.5784 31.7813L15.5728 31.9232L15.6069 32.061L16.5776 31.8206ZM16.5856 31.8529L15.6149 32.0933L15.6647 32.2943L15.7902 32.459L16.5856 31.8529ZM16.6016 31.8739L15.8062 32.48L15.8968 32.5989L16.0182 32.6861L16.6016 31.8739ZM16.768 31.9934L16.1846 32.8056L16.3324 32.9118L16.5081 32.959L16.768 31.9934ZM16.792 31.9999L16.5321 32.9655L16.8242 33.0441L17.1109 32.9477L16.792 31.9999ZM16.8112 31.9934L17.1301 32.9412L17.2725 32.8933L17.3945 32.8056L16.8112 31.9934ZM16.9776 31.8739L17.5609 32.6861L17.6874 32.5953L17.7803 32.4703L16.9776 31.8739ZM16.9968 31.8481L17.7995 32.4444L17.9235 32.2775L17.9707 32.0751L16.9968 31.8481ZM17.0032 31.8206L17.9771 32.0476L18.0077 31.9161L18.0024 31.7812L17.0032 31.8206ZM16.976 31.131L17.9752 31.0916L17.9712 30.9896L17.9467 30.8906L16.976 31.131ZM17.3728 30.9194L17.5707 29.9392L17.4012 29.905L17.2301 29.9296L17.3728 30.9194ZM17.3504 30.9226L17.2077 29.9329L17.0436 29.9565L16.8959 30.0319L17.3504 30.9226ZM17.056 31.0728L16.6015 30.1821L16.4585 30.255L16.3456 30.369L17.056 31.0728ZM17.04 31.089L16.3296 30.3852L16.1435 30.573L16.0746 30.8282L17.04 31.089ZM17.0352 31.1068L16.0698 30.846L16.0297 30.9945L16.036 31.1482L17.0352 31.1068ZM17.064 31.8012L16.0648 31.8427L16.0722 32.0193L16.1397 32.1828L17.064 31.8012ZM17.072 31.8206L16.1477 32.2022L16.2229 32.3843L16.3615 32.5243L17.072 31.8206ZM17.0848 31.8335L16.3743 32.5373L16.5014 32.6656L16.6654 32.7413L17.0848 31.8335ZM17.4064 31.9821L16.987 32.8899L17.0658 32.9263L17.1497 32.9486L17.4064 31.9821ZM17.4528 31.9692L18.2481 32.5753L18.3633 32.4243L18.415 32.2415L17.4528 31.9692ZM17.4592 31.9466L18.4214 32.2189L18.4668 32.0584L18.4577 31.8918L17.4592 31.9466ZM17.4048 30.9549L18.4033 30.9002L18.3978 30.7999L18.3724 30.7027L17.4048 30.9549ZM16.2288 30.9226L15.7069 31.7757L15.7418 31.797L15.7782 31.8154L16.2288 30.9226ZM16.1856 30.9323L15.3515 30.3807L15.3009 30.4571L15.2651 30.5415L16.1856 30.9323ZM16.176 30.9549L15.2555 30.5641L15.1871 30.7253L15.1775 30.9002L16.176 30.9549ZM16.1216 31.9466L15.1231 31.8918L15.1201 31.9467L15.1231 32.0015L16.1216 31.9466ZM16.1488 31.9853L15.7948 32.9206L16.0314 33.0102L16.2822 32.9764L16.1488 31.9853ZM16.1728 31.9821L16.3062 32.9732L16.4576 32.9528L16.5959 32.8882L16.1728 31.9821ZM16.4944 31.8319L16.9175 32.738L17.0279 32.6864L17.1226 32.6099L16.4944 31.8319ZM16.5104 31.819L17.1386 32.597L17.3911 32.3931L17.4758 32.0798L16.5104 31.819ZM16.5152 31.8012L17.4806 32.062L17.5097 31.9542L17.5143 31.8427L16.5152 31.8012ZM16.544 31.1068L17.5431 31.1482L17.5491 31.0052L17.5146 30.8663L16.544 31.1068ZM16.5392 31.0874L17.5098 30.8469L17.4436 30.5794L17.2496 30.3836L16.5392 31.0874ZM16.5232 31.0712L17.2336 30.3674L17.119 30.2518L16.9737 30.1785L16.5232 31.0712ZM16.7844 30.1158L16.7652 30.119L17.0971 32.0913L17.1163 32.088L16.7844 30.1158ZM16.4857 30.2099L16.3721 30.2664L17.2631 32.057L17.3767 32.0004L16.4857 30.2099ZM16.6197 30.1814L16.5877 30.1879L16.9835 32.1484L17.0155 32.1419L16.6197 30.1814ZM17.0627 30.2073L17.0403 30.2008L16.4861 32.1225L16.5085 32.129L17.0627 30.2073ZM17.2188 30.2715L17.1052 30.2133L16.194 31.9937L16.3076 32.0519L17.2188 30.2715ZM16.8943 30.1339C16.7766 30.1042 16.5942 30.0797 16.3826 30.1331C16.154 30.1908 15.9623 30.322 15.8275 30.4921L17.3949 31.7343C17.2686 31.8937 17.0876 32.0179 16.8718 32.0723C16.673 32.1225 16.5055 32.0985 16.4049 32.0731L16.8943 30.1339ZM15.6815 30.7448L15.6751 30.761L17.5345 31.4977L17.5409 31.4816L15.6815 30.7448ZM15.6056 31.09L15.5784 31.7813L17.5768 31.8599L17.604 31.1687L15.6056 31.09ZM15.6069 32.061L15.6149 32.0933L17.5563 31.6125L17.5483 31.5802L15.6069 32.061ZM15.7902 32.459L15.8062 32.48L17.397 31.2678L17.381 31.2468L15.7902 32.459ZM16.0182 32.6861L16.1846 32.8056L17.3513 31.1812L17.1849 31.0617L16.0182 32.6861ZM16.5081 32.959L16.5321 32.9655L17.0519 31.0342L17.0279 31.0278L16.5081 32.959ZM17.1109 32.9477L17.1301 32.9412L16.4923 31.0456L16.4731 31.0521L17.1109 32.9477ZM17.3945 32.8056L17.5609 32.6861L16.3942 31.0617L16.2278 31.1812L17.3945 32.8056ZM17.7803 32.4703L17.7995 32.4444L16.1941 31.2517L16.1749 31.2775L17.7803 32.4703ZM17.9707 32.0751L17.9771 32.0476L16.0293 31.5936L16.0229 31.621L17.9707 32.0751ZM18.0024 31.7812L17.9752 31.0916L15.9768 31.1704L16.004 31.86L18.0024 31.7812ZM17.9467 30.8906C17.8884 30.6556 17.6689 30.2087 17.1163 30.1158L16.7845 32.0881C16.5658 32.0513 16.3643 31.9402 16.2159 31.7717C16.0819 31.6195 16.0281 31.4632 16.0053 31.3714L17.9467 30.8906ZM17.2301 29.9296L17.2077 29.9329L17.493 31.9124L17.5154 31.9092L17.2301 29.9296ZM16.8959 30.0319L16.6015 30.1821L17.5104 31.9636L17.8048 31.8134L16.8959 30.0319ZM16.3456 30.369L16.3296 30.3852L17.7504 31.7928L17.7664 31.7766L16.3456 30.369ZM16.0746 30.8282L16.0698 30.846L18.0006 31.3675L18.0054 31.3498L16.0746 30.8282ZM16.036 31.1482L16.0648 31.8427L18.0631 31.7598L18.0343 31.0653L16.036 31.1482ZM16.1397 32.1828L16.1477 32.2022L17.9963 31.439L17.9883 31.4196L16.1397 32.1828ZM16.3615 32.5243L16.3743 32.5373L17.7952 31.1298L17.7824 31.1168L16.3615 32.5243ZM16.6654 32.7413L16.987 32.8899L17.8258 31.0743L17.5042 30.9257L16.6654 32.7413ZM17.1497 32.9486C17.2805 32.9833 17.4772 33.0087 17.7014 32.9463C17.9395 32.88 18.1241 32.738 18.2481 32.5753L16.6574 31.363C16.7708 31.2143 16.9424 31.0815 17.165 31.0195C17.3737 30.9614 17.5525 30.9862 17.6631 31.0156L17.1497 32.9486ZM18.415 32.2415L18.4214 32.2189L16.497 31.6742L16.4906 31.6968L18.415 32.2415ZM18.4577 31.8918L18.4033 30.9002L16.4063 31.0097L16.4607 32.0013L18.4577 31.8918ZM18.3724 30.7027C18.3045 30.4419 18.0767 30.0413 17.5707 29.9392L17.1749 31.8996C16.978 31.8599 16.7917 31.7576 16.6497 31.6C16.5187 31.4545 16.4622 31.3034 16.4371 31.2072L18.3724 30.7027ZM16.7506 30.0696C16.5224 29.93 16.2484 29.8842 15.9864 29.943L16.4241 31.8945C16.1783 31.9496 15.9211 31.9067 15.7069 31.7757L16.7506 30.0696ZM15.9864 29.943C15.7245 30.0017 15.4977 30.1596 15.3515 30.3807L17.0197 31.484C16.8826 31.6912 16.6699 31.8394 16.4241 31.8945L15.9864 29.943ZM15.2651 30.5415L15.2555 30.5641L17.0964 31.3458L17.106 31.3232L15.2651 30.5415ZM15.1775 30.9002L15.1231 31.8918L17.1201 32.0013L17.1745 31.0097L15.1775 30.9002ZM15.1231 32.0015C15.1315 32.1549 15.1765 32.3541 15.3106 32.5452C15.4475 32.7403 15.6288 32.8578 15.7948 32.9206L16.5028 31.0501C16.6517 31.1064 16.8199 31.2142 16.9477 31.3964C17.0728 31.5745 17.1127 31.7576 17.1201 31.8916L15.1231 32.0015ZM16.2822 32.9764L16.3062 32.9732L16.0393 30.991L16.0153 30.9943L16.2822 32.9764ZM16.5959 32.8882L16.9175 32.738L16.0712 30.9258L15.7496 31.076L16.5959 32.8882ZM17.1226 32.6099L17.1386 32.597L15.8822 31.0409L15.8662 31.0539L17.1226 32.6099ZM17.4758 32.0798L17.4806 32.062L15.5498 31.5404L15.545 31.5582L17.4758 32.0798ZM17.5143 31.8427L17.5431 31.1482L15.5448 31.0653L15.516 31.7598L17.5143 31.8427ZM17.5146 30.8663L17.5098 30.8469L15.5685 31.3278L15.5733 31.3472L17.5146 30.8663ZM17.2496 30.3836L17.2336 30.3674L15.8128 31.775L15.8288 31.7912L17.2496 30.3836ZM16.9737 30.1785L16.6793 30.0299L15.7782 31.8154L16.0726 31.964L16.9737 30.1785Z" fill="black" mask="url(#path-1-inside-1_524_2507)"/>
</g>
<path id="Vector_2" d="M0.5 4.84506V4.84503C0.499939 3.73531 0.920033 2.66834 1.67304 1.86224C2.4242 1.05811 3.44985 0.574256 4.54059 0.507645L4.80717 0.5H27.2C28.2954 0.499938 29.3502 0.922336 30.1485 1.68211C30.9452 2.44036 31.4262 3.47755 31.4924 4.58261L31.5 4.85207V20.9953C31.5001 22.105 31.08 23.172 30.327 23.9781C29.5758 24.7822 28.5501 25.2661 27.4594 25.3327L27.1929 25.3403H4.8C3.70461 25.3404 2.64978 24.918 1.85149 24.1582C1.05482 23.4 0.573765 22.3628 0.507585 21.2577L0.5 20.9882V4.84506ZM29.3 9.69012V9.19012H28.8H3.2H2.7V9.69012V20.9953V20.9953C2.70007 21.512 2.88796 22.0114 3.22917 22.3987C3.57048 22.7862 4.04165 23.0346 4.55376 23.0955L4.56817 23.0972L4.58266 23.0981L4.76986 23.1094L4.78492 23.1103H4.8H27.2H27.2001C27.7158 23.1102 28.2128 22.919 28.597 22.5742C28.981 22.2295 29.2255 21.7554 29.2854 21.2422L29.2871 21.228L29.2879 21.2138L29.2991 21.0248L29.3 21.0101V20.9953V9.69012ZM22.9007 15.3602L22.9007 15.3602C23.1075 15.569 23.2245 15.853 23.2245 16.1502C23.2245 16.4473 23.1075 16.7314 22.9008 16.9401C22.9008 16.9401 22.9008 16.9402 22.9007 16.9402L19.976 19.8924L19.9759 19.8923L19.9699 19.8986C19.8682 20.0049 19.7468 20.0894 19.6129 20.1475C19.4791 20.2055 19.3353 20.236 19.1899 20.2373C19.0445 20.2386 18.9002 20.2106 18.7653 20.1549L18.5745 20.6171L18.7653 20.1549C18.6305 20.0992 18.5077 20.0169 18.4042 19.9124C18.3007 19.8079 18.2186 19.6834 18.1629 19.546C18.1072 19.4086 18.0791 19.2613 18.0804 19.1126C18.0817 18.9639 18.1123 18.817 18.1703 18.6807C18.2283 18.5443 18.3126 18.4213 18.4178 18.3187L18.4179 18.3187L18.4255 18.3111L18.6175 18.1156L19.453 17.2652H18.2608H11.2C10.9098 17.2652 10.6305 17.1489 10.4238 16.9403C10.217 16.7315 10.1 16.4474 10.1 16.1502C10.1 15.853 10.217 15.5689 10.4238 15.3601C10.6305 15.1515 10.9098 15.0352 11.2 15.0352H18.2624H19.4616L18.6176 14.1833L18.424 13.9879L18.4239 13.9877C18.2169 13.779 18.0998 13.4948 18.0997 13.1975C18.0996 12.9002 18.2165 12.616 18.4233 12.4071C18.63 12.1984 18.9093 12.0819 19.1996 12.0818C19.4899 12.0817 19.7693 12.1979 19.9761 12.4065L22.9007 15.3602ZM2.7 6.46008V6.96008H3.2H28.8H29.3V6.46008V4.84506C29.3 4.28562 29.0799 3.74817 28.6866 3.35117C28.2931 2.95402 27.7585 2.73004 27.2 2.73004H4.8C4.24153 2.73004 3.70689 2.95402 3.31343 3.35117C2.92013 3.74816 2.7 4.28562 2.7 4.84506V6.46008Z" fill="black" stroke="black"/>
</g>
</svg>
