<svg width="32" height="26" viewBox="0 0 32 26" fill="none" xmlns="http://www.w3.org/2000/svg">
<path d="M0.5 4.84506V4.84503C0.499939 3.73531 0.920033 2.66834 1.67304 1.86224C2.4242 1.05811 3.44985 0.574256 4.54059 0.507645L4.80717 0.5H27.2C28.2954 0.499938 29.3502 0.922336 30.1485 1.68211C30.9452 2.44036 31.4262 3.47755 31.4924 4.58261L31.5 4.85207V20.9953C31.5001 22.105 31.08 23.172 30.327 23.9781C29.5758 24.7822 28.5501 25.2661 27.4594 25.3327L27.1929 25.3403H4.8C3.70461 25.3404 2.64978 24.918 1.85149 24.1582C1.05482 23.4 0.573765 22.3628 0.507585 21.2577L0.5 20.9882V4.84506ZM29.3 9.69012V9.19012H28.8H3.2H2.7V9.69012V20.9953V20.9953C2.70007 21.512 2.88796 22.0114 3.22917 22.3987C3.57048 22.7862 4.04165 23.0346 4.55376 23.0955L4.56817 23.0972L4.58266 23.0981L4.76986 23.1094L4.78492 23.1103H4.8H27.2H27.2001C27.7158 23.1102 28.2128 22.919 28.597 22.5742C28.981 22.2295 29.2255 21.7554 29.2854 21.2422L29.2871 21.228L29.2879 21.2138L29.2991 21.0248L29.3 21.0101V20.9953V9.69012ZM22.9007 15.3602L22.9007 15.3602C23.1075 15.569 23.2245 15.853 23.2245 16.1502C23.2245 16.4473 23.1075 16.7314 22.9008 16.9401C22.9008 16.9401 22.9008 16.9402 22.9007 16.9402L19.976 19.8924L19.9759 19.8923L19.9699 19.8986C19.8682 20.0049 19.7468 20.0894 19.6129 20.1475C19.4791 20.2055 19.3353 20.236 19.1899 20.2373C19.0445 20.2386 18.9002 20.2106 18.7653 20.1549L18.5745 20.6171L18.7653 20.1549C18.6305 20.0992 18.5077 20.0169 18.4042 19.9124C18.3007 19.8079 18.2186 19.6834 18.1629 19.546C18.1072 19.4086 18.0791 19.2613 18.0804 19.1126C18.0817 18.9639 18.1123 18.817 18.1703 18.6807C18.2283 18.5443 18.3126 18.4213 18.4178 18.3187L18.4179 18.3187L18.4255 18.3111L18.6175 18.1156L19.453 17.2652H18.2608H11.2C10.9098 17.2652 10.6305 17.1489 10.4238 16.9403C10.217 16.7315 10.1 16.4474 10.1 16.1502C10.1 15.853 10.217 15.5689 10.4238 15.3601C10.6305 15.1515 10.9098 15.0352 11.2 15.0352H18.2624H19.4616L18.6176 14.1833L18.424 13.9879L18.4239 13.9877C18.2169 13.779 18.0998 13.4948 18.0997 13.1975C18.0996 12.9002 18.2165 12.616 18.4233 12.4071C18.63 12.1984 18.9093 12.0819 19.1996 12.0818C19.4899 12.0817 19.7693 12.1979 19.9761 12.4065L22.9007 15.3602ZM2.7 6.46008V6.96008H3.2H28.8H29.3V6.46008V4.84506C29.3 4.28562 29.0799 3.74817 28.6866 3.35117C28.2931 2.95402 27.7585 2.73004 27.2 2.73004H4.8C4.24153 2.73004 3.70689 2.95402 3.31343 3.35117C2.92013 3.74816 2.7 4.28562 2.7 4.84506V6.46008Z" fill="black" stroke="black"/>
</svg>
