<svg width="22" height="24" viewBox="0 0 22 24" fill="none" xmlns="http://www.w3.org/2000/svg">
<path d="M1 19.7359C1 18.1345 1.52678 16.5988 2.46447 15.4665C3.40215 14.3342 4.67392 13.6981 6 13.6981H16C17.3261 13.6981 18.5979 14.3342 19.5355 15.4665C20.4732 16.5988 21 18.1345 21 19.7359C21 20.5365 20.7366 21.3044 20.2678 21.8705C19.7989 22.4367 19.163 22.7547 18.5 22.7547H3.5C2.83696 22.7547 2.20107 22.4367 1.73223 21.8705C1.26339 21.3044 1 20.5365 1 19.7359Z" stroke="black" stroke-opacity="0.7" stroke-linejoin="round"/>
<path d="M10.929 10.6414C13.3996 10.6414 15.4024 8.53803 15.4024 5.94334C15.4024 3.34865 13.3996 1.24524 10.929 1.24524C8.45838 1.24524 6.45557 3.34865 6.45557 5.94334C6.45557 8.53803 8.45838 10.6414 10.929 10.6414Z" stroke="black" stroke-opacity="0.7"/>
</svg>
