<svg width="22" height="22" viewBox="0 0 22 22" fill="none" xmlns="http://www.w3.org/2000/svg">
<path id="Vector" d="M11.0037 22C9.48322 22 8.05729 21.7144 6.72589 21.1432C5.39611 20.572 4.23337 19.7931 3.23767 18.8063C2.24196 17.8196 1.45322 16.6585 0.871446 15.323C0.289668 13.9875 -0.000813105 12.5628 1.7094e-06 11.0489H1.22222C1.22222 12.3933 1.48093 13.6571 1.99833 14.8402C2.51493 16.0241 3.21648 17.059 4.103 17.9447C4.98952 18.8304 6.02555 19.5295 7.21111 20.042C8.39666 20.5545 9.65922 20.8104 10.9988 20.8095C13.7284 20.8095 16.0404 19.8623 17.9349 17.9679C19.8293 16.0734 20.777 13.761 20.7778 11.0306C20.7786 8.30011 19.8314 5.98807 17.9361 4.09444C16.0408 2.20081 13.7288 1.25359 11 1.25278C9.01511 1.25278 7.23678 1.77426 5.665 2.81722C4.09485 3.86018 2.92111 5.22459 2.14378 6.91044H5.68822V8.13266H1.7094e-06V2.44444H1.22222V6.08666C2.10793 4.27126 3.4157 2.80296 5.14556 1.68178C6.87541 0.560592 8.82689 0 11 0C12.5221 0 13.9521 0.288852 15.29 0.866555C16.6279 1.44426 17.7923 2.2273 18.7831 3.21567C19.7739 4.20404 20.5574 5.368 21.1334 6.70755C21.7095 8.04711 21.9984 9.4767 22 10.9963C22.0016 12.516 21.7132 13.946 21.1347 15.2863C20.5561 16.6267 19.7723 17.7915 18.7831 18.7807C17.7939 19.7698 16.6304 20.5541 15.2924 21.1334C13.9545 21.7128 12.5249 22.0016 11.0037 22ZM7.47511 15.6078V9.77777H8.69733V8.415C8.69733 7.78107 8.92263 7.23841 9.37322 6.787C9.82381 6.33641 10.3661 6.11111 11 6.11111C11.6339 6.11111 12.1762 6.33681 12.6268 6.78822C13.0774 7.23963 13.3031 7.78148 13.3039 8.41378V9.77777H14.5261V15.6078H7.47511ZM9.63722 9.77777H12.3628V8.42355C12.3628 8.04059 12.2304 7.71589 11.9656 7.44944C11.7007 7.183 11.3789 7.05059 11 7.05222C10.6211 7.05385 10.2993 7.18666 10.0344 7.45066C9.76963 7.71466 9.63681 8.03937 9.636 8.42478L9.63722 9.77777Z" fill="black"/>
</svg>
