<svg width="24" height="24" viewBox="0 0 24 24" fill="none" xmlns="http://www.w3.org/2000/svg">
<path d="M24 23.5556C24 23.6734 23.9425 23.7865 23.8402 23.8698C23.7379 23.9532 23.5992 24 23.4545 24H9.27276C9.1281 24 8.98936 23.9532 8.88706 23.8698C8.78477 23.7865 8.72731 23.6734 8.72731 23.5556C8.72731 23.4377 8.78477 23.3247 8.88706 23.2413C8.98936 23.158 9.1281 23.1111 9.27276 23.1111H23.4545C23.5992 23.1111 23.7379 23.158 23.8402 23.2413C23.9425 23.3247 24 23.4377 24 23.5556ZM24 15.5558V19.1113C24 19.4649 23.8276 19.804 23.5207 20.054C23.2138 20.3041 22.7976 20.4446 22.3636 20.4446H9.56049C9.25629 20.4455 8.95784 20.377 8.69899 20.2468C8.44014 20.1166 8.23123 19.9299 8.09594 19.7079L0.171869 6.81943C0.0588252 6.63402 0 6.42981 0 6.22278C0 6.01576 0.0588252 5.81154 0.171869 5.62613L3.18823 0.737399C3.38104 0.422952 3.71845 0.183266 4.12705 0.0704881C4.53565 -0.0422898 4.98238 -0.0190343 5.37004 0.135195L9.97639 1.7207L10.0078 1.73292C10.2 1.81119 10.3715 1.91955 10.5123 2.05181C10.6531 2.18407 10.7606 2.33764 10.8286 2.50376C10.8966 2.66987 10.9238 2.84527 10.9086 3.01994C10.8934 3.19461 10.8361 3.36513 10.74 3.52176L10.7318 3.53287L8.78185 6.47389C8.74503 6.5349 8.72588 6.60199 8.72588 6.66999C8.72588 6.73799 8.74503 6.80508 8.78185 6.8661L13.1155 13.977C13.1609 14.0504 13.2305 14.1122 13.3164 14.1553C13.4024 14.1985 13.5013 14.2214 13.6023 14.2214H22.3636C22.5786 14.2214 22.7915 14.2559 22.9902 14.323C23.1888 14.3901 23.3692 14.4884 23.5212 14.6123C23.6732 14.7362 23.7937 14.8834 23.8758 15.0453C23.958 15.2071 24.0002 15.3806 24 15.5558ZM22.9091 15.5558C22.9091 15.438 22.8516 15.3249 22.7493 15.2416C22.647 15.1582 22.5083 15.1114 22.3636 15.1114H13.605C13.3001 15.113 13.0008 15.0448 12.7412 14.9145C12.4815 14.7843 12.272 14.5973 12.1364 14.3747L7.80276 7.26386C7.68944 7.07892 7.63045 6.87504 7.63045 6.66832C7.63045 6.46161 7.68944 6.25773 7.80276 6.07279L7.81094 6.06056L9.75685 3.11955C9.81826 3.01629 9.82829 2.89769 9.78482 2.78856C9.74136 2.67942 9.64778 2.58821 9.52367 2.53401L4.92686 0.948503L4.89413 0.936281C4.81891 0.90527 4.73571 0.889275 4.65141 0.889616C4.55007 0.889557 4.45072 0.912499 4.36449 0.95587C4.27827 0.999241 4.20857 1.06133 4.16322 1.13516L1.14687 6.0239C1.10917 6.0855 1.08954 6.15339 1.08954 6.22223C1.08954 6.29106 1.10917 6.35895 1.14687 6.42055L9.07094 19.309C9.11629 19.3829 9.18598 19.445 9.27221 19.4883C9.35844 19.5317 9.45779 19.5546 9.55912 19.5546H22.3636C22.5083 19.5546 22.647 19.5078 22.7493 19.4244C22.8516 19.3411 22.9091 19.228 22.9091 19.1102V15.5558Z" fill="black" fill-opacity="0.7"/>
</svg>
