<svg width="32" height="32" viewBox="0 0 32 32" fill="none" xmlns="http://www.w3.org/2000/svg">
<g id="carbon:security">
<path id="Vector" d="M14 16.59L11.41 14L10 15.41L14 19.41L22 11.41L20.59 10L14 16.59Z" fill="black"/>
<path id="Vector_2" d="M5.41667 3.42857H5.91667H25.0833H25.5833V3.92857V16.4639V16.4643H25.0833C25.0846 18.0379 24.6601 19.5821 23.8555 20.9314C23.0509 22.2808 21.8964 23.3843 20.5159 24.1236L5.41667 3.42857ZM5.41667 3.42857V3.92857M5.41667 3.42857V3.92857M5.41667 3.92857L5.41667 16.4639M5.41667 3.92857L5.41667 16.4639M5.41667 16.4639C5.41667 16.464 5.41667 16.4641 5.41667 16.4641C5.41667 16.4642 5.41667 16.4642 5.41667 16.4643C5.41561 18.1277 5.86444 19.7603 6.71533 21.187M5.41667 16.4639L6.71533 21.187M6.71533 21.187C7.56622 22.6137 8.78719 23.7809 10.2477 24.5632L6.71533 21.187ZM9.81772 25.384L9.81726 25.3838C8.21019 24.5237 6.86585 23.2392 5.9289 21.6679C4.99194 20.0965 4.49787 18.2978 4.50001 16.4649V16.4643V3.92857C4.50001 3.54869 4.65001 3.185 4.91603 2.91732C5.18195 2.64975 5.54195 2.5 5.91667 2.5H25.0833C25.458 2.5 25.8181 2.64975 26.084 2.91732C26.35 3.185 26.5 3.5487 26.5 3.92857V16.4643V16.4649C26.5021 18.2978 26.0081 20.0965 25.0711 21.6679C24.1342 23.2392 22.7898 24.5237 21.1827 25.3838L21.1823 25.384L15.5 28.4326L9.81772 25.384ZM15.7363 27.2546L20.752 24.5644L10.248 24.5634L15.2636 27.2546L15.5 27.3814L15.7363 27.2546Z" fill="black" stroke="black"/>
</g>
</svg>
