<svg width="24" height="28" viewBox="0 0 24 28" fill="none" xmlns="http://www.w3.org/2000/svg">
<g id="Group">
<path id="Vector" d="M1.88173 7.60295L1.88225 7.60264L11.6444 1.78203C11.6445 1.78199 11.6446 1.78195 11.6446 1.78192L11.645 1.78172L11.901 2.21118C11.9313 2.19308 11.9654 2.18358 12 2.18358C12.0346 2.18358 12.0687 2.19308 12.099 2.21118L1.88173 7.60295ZM1.88173 7.60295C1.77155 7.66882 1.684 7.7622 1.62453 7.86995L1.88173 7.60295ZM22.5928 6.55229L22.5928 6.55234C23.1422 6.87977 23.5 7.51401 23.5 8.22273V19.7773C23.5 20.486 23.1422 21.1202 22.5928 21.4477L22.5928 21.4477L12.8301 27.2686C12.5738 27.4213 12.2883 27.5 12 27.5C11.7117 27.5 11.4262 27.4213 11.1699 27.2686L1.40725 21.4477L1.40715 21.4476C1.13764 21.287 0.908624 21.0492 0.747434 20.7552C0.586151 20.461 0.499909 20.1233 0.5 19.7774V19.7773V8.22273C0.5 7.51401 0.8578 6.87977 1.40717 6.55234L1.40725 6.55229L11.1699 0.731428C11.4262 0.578691 11.7117 0.5 12 0.5C12.2883 0.5 12.5738 0.57869 12.8301 0.731428L22.5928 6.55229ZM22.4661 8.22261C22.4661 8.10137 22.436 7.98045 22.3766 7.87201L1.62453 7.86996C1.56515 7.97754 1.53469 8.09755 1.53391 8.21805H1.5339V8.22128V19.7787C1.5339 20.0245 1.65974 20.265 1.88247 20.3975C1.88266 20.3976 1.88286 20.3977 1.88305 20.3978L11.6444 26.218C11.7508 26.2816 11.8733 26.3164 12 26.3164C12.1267 26.3164 12.2492 26.2816 12.3556 26.218L22.1178 20.3974L22.1182 20.3971C22.2285 20.3312 22.316 20.2378 22.3755 20.1301C22.4348 20.0225 22.4653 19.9024 22.4661 19.782V19.7787V8.22273V8.22261Z" fill="black" stroke="black"/>
<path id="Vector_2" d="M6.05908 13.9995C6.05908 12.2879 6.69295 10.6529 7.81133 9.45259C8.92859 8.25351 10.4361 7.58716 11.9998 7.58716C13.5635 7.58716 15.0709 8.25351 16.1882 9.45259C17.3066 10.6529 17.9404 12.2879 17.9404 13.9995C17.9404 15.7111 17.3066 17.3461 16.1882 18.5464C15.0709 19.7455 13.5635 20.4118 11.9998 20.4118C10.4361 20.4118 8.92859 19.7455 7.81133 18.5464C6.69295 17.3461 6.05908 15.7111 6.05908 13.9995ZM11.9998 8.77C10.6865 8.77 9.43491 9.33021 8.51788 10.3144C7.60197 11.2974 7.09298 12.6235 7.09298 13.9995C7.09298 15.3755 7.60197 16.7016 8.51788 17.6846C9.43491 18.6688 10.6865 19.229 11.9998 19.229C13.313 19.229 14.5646 18.6688 15.4816 17.6846C16.3976 16.7016 16.9065 15.3755 16.9065 13.9995C16.9065 12.6235 16.3976 11.2974 15.4816 10.3144C14.5646 9.33021 13.313 8.77 11.9998 8.77Z" fill="black" stroke="black"/>
</g>
</svg>
