<svg width="25" height="24" viewBox="0 0 25 24" fill="none" xmlns="http://www.w3.org/2000/svg">
<g id="Group">
<path id="Vector" d="M1 14.5086V9.49141C1 8.77486 1.28508 8.08766 1.79253 7.58098C2.29999 7.0743 2.98824 6.78965 3.70588 6.78965H7.62941C7.89394 6.78959 8.15265 6.71209 8.37353 6.56676L16.4912 1.22267C16.6951 1.08856 16.9317 1.01207 17.1756 1.00131C17.4196 0.990561 17.662 1.04595 17.877 1.16159C18.092 1.27724 18.2716 1.44884 18.3968 1.65818C18.5221 1.86753 18.5882 2.10681 18.5882 2.35066V21.6493C18.5882 21.8932 18.5221 22.1325 18.3968 22.3418C18.2716 22.5512 18.092 22.7228 17.877 22.8384C17.662 22.9541 17.4196 23.0094 17.1756 22.9987C16.9317 22.9879 16.6951 22.9114 16.4912 22.7773L8.37353 17.4332C8.15265 17.2879 7.89394 17.2104 7.62941 17.2103H3.70588C2.98824 17.2103 2.29999 16.9257 1.79253 16.419C1.28508 15.9123 1 15.2251 1 14.5086Z" stroke="black" stroke-width="1.5"/>
<path id="Vector_2" d="M24 16.0527V7.94739" stroke="black" stroke-width="1.5" stroke-linecap="round"/>
</g>
</svg>
