<svg width="24" height="24" viewBox="0 0 24 24" fill="none" xmlns="http://www.w3.org/2000/svg">
<path d="M23.9285 9.05599C23.8464 8.78705 23.6885 8.54989 23.4751 8.37523C23.2617 8.20057 23.0028 8.09645 22.7318 8.07637L15.9015 7.49944L13.2702 0.884357C13.1666 0.622729 12.9904 0.398982 12.7641 0.241524C12.5378 0.0840659 12.2715 0 11.9991 0C11.7266 0 11.4603 0.0840659 11.234 0.241524C11.0077 0.398982 10.8315 0.622729 10.7279 0.884357L8.09666 7.49944L1.26634 8.07637C0.99491 8.1003 0.736321 8.20692 0.523006 8.38285C0.30969 8.55879 0.151142 8.79621 0.0672441 9.06534C-0.0166539 9.33447 -0.0221676 9.62333 0.0513942 9.8957C0.124956 10.1681 0.274319 10.4118 0.480753 10.5964L5.68655 15.2591L4.09536 22.2273C4.02872 22.5028 4.04288 22.7926 4.13601 23.0597C4.22915 23.3268 4.39701 23.5588 4.61805 23.7261C4.8391 23.8934 5.10325 23.9883 5.37659 23.9986C5.64993 24.0089 5.91999 23.9341 6.15212 23.7839L11.9991 20.05L17.846 23.7839C18.0757 23.9345 18.3439 24.0095 18.6154 23.999C18.8868 23.9885 19.1489 23.893 19.3672 23.725C19.5916 23.5601 19.7628 23.3287 19.8583 23.061C19.9539 22.7933 19.9694 22.502 19.9028 22.225L18.3116 15.2534L23.5174 10.5906C23.726 10.407 23.8767 10.1625 23.95 9.88892C24.0233 9.6153 24.0158 9.32513 23.9285 9.05599ZM22.9362 9.89369L17.5271 14.7399C17.4655 14.7951 17.4196 14.8668 17.3946 14.9471C17.3695 15.0275 17.3661 15.1135 17.3849 15.1957L19.0372 22.4408C19.0614 22.5398 19.0561 22.6441 19.022 22.7399C18.9878 22.8357 18.9265 22.9185 18.846 22.9773C18.7695 23.0366 18.6774 23.0704 18.5819 23.0741C18.4865 23.0778 18.3922 23.0513 18.3116 22.9981L12.2324 19.1153C12.1623 19.0704 12.0815 19.0466 11.9991 19.0466C11.9166 19.0466 11.8359 19.0704 11.7657 19.1153L5.68655 22.9981C5.60594 23.0513 5.51165 23.0778 5.4162 23.0741C5.32075 23.0704 5.22864 23.0366 5.15208 22.9773C5.07163 22.9185 5.01028 22.8357 4.97615 22.7399C4.94202 22.6441 4.93673 22.5398 4.96096 22.4408L6.61326 15.1957C6.63199 15.1135 6.62863 15.0275 6.60355 14.9471C6.57847 14.8668 6.53263 14.7951 6.47103 14.7399L1.06189 9.89369C0.987165 9.82828 0.933189 9.74097 0.90702 9.64318C0.880851 9.5454 0.883708 9.44168 0.915218 9.34561C0.944194 9.25047 1.00006 9.16657 1.07556 9.10484C1.15107 9.04311 1.24271 9.00639 1.33857 8.99945L8.44334 8.39829C8.52506 8.39155 8.6034 8.36147 8.66968 8.31137C8.73596 8.26128 8.78761 8.19312 8.81891 8.11444L11.5546 1.23744C11.5904 1.14422 11.6524 1.06429 11.7324 1.00799C11.8124 0.95169 11.9068 0.921595 12.0035 0.921595C12.1002 0.921595 12.1946 0.95169 12.2746 1.00799C12.3547 1.06429 12.4166 1.14422 12.4524 1.23744L15.1881 8.11444C15.2187 8.19182 15.269 8.25911 15.3336 8.3091C15.3982 8.3591 15.4746 8.38993 15.5548 8.39829L22.6551 8.99253C22.751 8.99946 22.8426 9.03618 22.9181 9.09792C22.9936 9.15965 23.0495 9.24354 23.0785 9.33869C23.112 9.43524 23.1163 9.5401 23.0909 9.63927C23.0655 9.73845 23.0115 9.82721 22.9362 9.89369Z" fill="black"/>
</svg>
