<svg width="24" height="24" viewBox="0 0 24 24" fill="none" xmlns="http://www.w3.org/2000/svg">
<path id="Vector" d="M13.1 17.044C12.2333 17.0493 11.3858 16.9564 10.5573 16.7653C9.72889 16.5742 9.016 16.1796 8.41867 15.5813C7.93956 15.1031 7.57067 14.5564 7.312 13.9413C7.05244 13.3262 6.92267 12.6818 6.92267 12.008C6.92267 11.7173 6.94267 11.4409 6.98267 11.1787C7.02178 10.9156 7.09156 10.6498 7.192 10.3813C7.24711 10.2178 7.24178 10.0582 7.176 9.90267C7.11022 9.74711 7.00622 9.63911 6.864 9.57867C6.71733 9.51911 6.56756 9.52356 6.41467 9.592C6.26178 9.66045 6.15778 9.77689 6.10267 9.94133C5.99156 10.2747 5.904 10.6124 5.84 10.9547C5.776 11.296 5.744 11.6444 5.744 12C5.744 12.8373 5.90311 13.636 6.22133 14.396C6.54044 15.156 6.99378 15.8298 7.58133 16.4173C8.26756 17.1249 9.08889 17.6027 10.0453 17.8507C11.0018 18.0996 11.9729 18.2262 12.9587 18.2307L11.6747 19.516C11.56 19.6307 11.4982 19.7658 11.4893 19.9213C11.4804 20.0769 11.5422 20.2204 11.6747 20.352C11.8071 20.4836 11.9462 20.5493 12.092 20.5493C12.2378 20.5493 12.3773 20.4836 12.5107 20.352L14.5413 18.3213C14.7564 18.1053 14.864 17.8538 14.864 17.5667C14.864 17.2796 14.7564 17.0284 14.5413 16.8133L12.5107 14.7827C12.3951 14.6671 12.26 14.6053 12.1053 14.5973C11.9498 14.5884 11.8062 14.6502 11.6747 14.7827C11.5431 14.9151 11.4773 15.0542 11.4773 15.2C11.4773 15.3458 11.5431 15.4853 11.6747 15.6187L13.1 17.044ZM10.9187 6.94933C11.7853 6.94933 12.6338 7.04444 13.464 7.23467C14.2951 7.42489 15.0098 7.81911 15.608 8.41733C16.0862 8.89644 16.4551 9.44356 16.7147 10.0587C16.9742 10.6738 17.1036 11.3182 17.1027 11.992C17.1027 12.2827 17.0831 12.5591 17.044 12.8213C17.0049 13.0836 16.9347 13.3489 16.8333 13.6173C16.7791 13.7818 16.7849 13.9431 16.8507 14.1013C16.9164 14.2596 17.02 14.3684 17.1613 14.428C17.3089 14.4876 17.4591 14.4876 17.612 14.428C17.7649 14.3684 17.8684 14.2564 17.9227 14.092C18.0338 13.7587 18.1218 13.4156 18.1867 13.0627C18.2507 12.7098 18.2827 12.3556 18.2827 12C18.2827 11.1627 18.1258 10.364 17.812 9.604C17.4982 8.844 17.0449 8.16756 16.452 7.57467C15.7604 6.86622 14.9364 6.38978 13.98 6.14533C13.0244 5.9 12.0533 5.77733 11.0667 5.77733L12.36 4.484C12.4684 4.36933 12.5271 4.23422 12.536 4.07867C12.5449 3.92311 12.4836 3.77956 12.352 3.648C12.2204 3.51644 12.0809 3.45111 11.9333 3.452C11.7858 3.45289 11.6467 3.51822 11.516 3.648L9.48533 5.68C9.26933 5.896 9.16133 6.14756 9.16133 6.43467C9.16133 6.72178 9.26933 6.97289 9.48533 7.188L11.516 9.21867C11.6307 9.33422 11.7658 9.396 11.9213 9.404C12.0769 9.412 12.2204 9.35067 12.352 9.22C12.4836 9.08933 12.5493 8.94978 12.5493 8.80133C12.5493 8.65289 12.4836 8.51378 12.352 8.384L10.9187 6.94933ZM12 24C10.3431 24 8.78489 23.6844 7.32533 23.0533C5.86578 22.4213 4.596 21.5653 3.516 20.4853C2.43511 19.4044 1.57911 18.1342 0.948 16.6747C0.316 15.2151 0 13.6569 0 12C0 10.3431 0.315556 8.78489 0.946667 7.32533C1.57778 5.86578 2.43422 4.596 3.516 3.516C4.59778 2.436 5.86756 1.57956 7.32533 0.946667C8.78578 0.315556 10.344 0 12 0C13.656 0 15.2142 0.315556 16.6747 0.946667C18.1342 1.57867 19.404 2.43511 20.484 3.516C21.5649 4.596 22.4209 5.86578 23.052 7.32533C23.684 8.78578 24 10.344 24 12C24 13.656 23.6844 15.2142 23.0533 16.6747C22.4213 18.1342 21.5653 19.404 20.4853 20.484C19.4044 21.5649 18.1342 22.4209 16.6747 23.052C15.2151 23.684 13.6569 24 12 24ZM12 22.6667C14.9778 22.6667 17.5 21.6333 19.5667 19.5667C21.6333 17.5 22.6667 14.9778 22.6667 12C22.6667 9.02222 21.6333 6.5 19.5667 4.43333C17.5 2.36667 14.9778 1.33333 12 1.33333C9.02222 1.33333 6.5 2.36667 4.43333 4.43333C2.36667 6.5 1.33333 9.02222 1.33333 12C1.33333 14.9778 2.36667 17.5 4.43333 19.5667C6.5 21.6333 9.02222 22.6667 12 22.6667Z" fill="black"/>
</svg>
